<svg width="173" height="149" viewBox="0 0 173 149" fill="none" xmlns="http://www.w3.org/2000/svg">
<rect x="1.48158" y="1.42114" width="17.8692" height="14.4103" transform="matrix(0.99862 -0.0525123 -0.0108974 0.999941 151.208 1.19605)" stroke="#DEDEDE" stroke-opacity="0.37" stroke-width="3"/>
<path d="M83.0463 64.7286C82.996 69.3442 78.6408 73.5305 73.035 73.8252C67.4292 74.12 63.1604 70.3873 63.2107 65.7716C63.261 61.156 67.6161 56.9697 73.2219 56.6749C78.8277 56.3801 83.0966 60.1129 83.0463 64.7286Z" stroke="#DEDEDE" stroke-opacity="0.37" stroke-width="2"/>
<path d="M117.644 76.0068C128.961 76.0253 154.698 69.9536 167.104 45.5194" stroke="#DEDEDE" stroke-opacity="0.37" stroke-width="3"/>
<path d="M66.0677 136.032L64.1258 137.743L61.1816 136.743C60.2984 136.444 57.9334 137.485 56.8613 138.042C54.566 139.173 49.4098 140.846 47.1468 138.498C44.3181 135.563 46.1885 134.42 48.4328 128.269C50.2282 123.348 46.7293 123.675 44.7555 124.453C34.106 127.714 33.0122 126.404 31.4149 124.492L31.3882 124.459C30.0985 122.916 32.3965 117.625 33.7068 115.173C35.1436 109.34 30.8232 110.639 28.4859 111.426C26.1486 112.213 21.2184 114.293 17.4256 112.413C13.6328 110.533 16.7257 105.262 18.4287 101.89C20.1318 98.5178 18.2065 98.0619 17.0036 97.4562C15.8006 96.8504 10.8705 98.9299 7.45651 100.141C4.04251 101.353 1.79324 99.4045 0.818343 97.4935C-0.156559 95.5826 2.3677 92.2915 3.63127 89.3626C4.64213 87.0195 3.14998 85.0515 2.27755 84.3604L4.57376 82.3745L5.43609 83.6547C7.42991 86.109 6.78981 88.657 5.01532 92.5975C3.24083 96.5381 3.43855 97.0002 5.19353 97.7933C6.9485 98.5864 9.30244 95.6326 15.6469 95.0206C21.9914 94.4087 21.8016 99.4796 21.645 100.216C21.4884 100.953 20.0545 104.219 19.0327 106.243C18.0109 108.266 18.2634 110.327 20.2876 111.014C22.3117 111.701 22.9655 109.553 30.4718 108.347C36.4769 107.383 37.3883 111.156 37.0934 113.162C36.7857 113.914 35.8353 116.251 34.4948 119.588C32.8191 123.76 34.9147 123.879 36.104 124.085C37.2932 124.291 39.7734 122.367 46.203 121.587C52.6327 120.806 51.8194 126.258 51.7342 126.427C51.6491 126.595 50.825 129.081 49.2208 132.684C47.6166 136.287 50.1928 137.162 50.5608 137.287C50.9288 137.412 54.6257 136.494 57.9408 135.051C60.5929 133.897 64.4638 135.224 66.0677 136.032Z" fill="#DEDEDE" fill-opacity="0.37"/>
</svg>
