<svg width="155" height="39" viewBox="0 0 155 39" fill="none" xmlns="http://www.w3.org/2000/svg">
<rect width="155" height="39" rx="3" fill="#4267B2"/>
<path d="M24.7744 13.0048H23.3347C22.9738 12.9808 22.6127 13.0477 22.2758 13.2011C21.9388 13.3545 21.6339 13.5907 21.3817 13.8939C21.1294 14.197 20.9356 14.56 20.8133 14.9583C20.6911 15.3566 20.6433 15.781 20.6731 16.2028V17.6766H19.2266C19.1665 17.6766 19.1088 17.7046 19.0664 17.7543C19.0239 17.8041 19 17.8715 19 17.9419V20.0788C19 20.1492 19.0239 20.2167 19.0664 20.2664C19.1088 20.3162 19.1665 20.3441 19.2266 20.3441H20.674V25.7347C20.674 25.8051 20.6979 25.8726 20.7404 25.9223C20.7829 25.972 20.8405 26 20.9006 26H22.7886C22.8487 26 22.9063 25.972 22.9488 25.9223C22.9913 25.8726 23.0152 25.8051 23.0152 25.7347V20.3441H24.7057C24.7651 20.3429 24.8217 20.3145 24.8634 20.2648C24.905 20.2152 24.9284 20.1484 24.9283 20.0788V17.9419C24.9283 17.8715 24.9045 17.8041 24.862 17.7543C24.8195 17.7046 24.7619 17.6766 24.7018 17.6766H23.0142V16.4296C23.0142 15.8287 23.1362 15.5226 23.8052 15.5226H24.7734C24.8335 15.5226 24.8911 15.4947 24.9336 15.4449C24.9761 15.3952 25 15.3277 25 15.2574V13.2723C25.0002 13.2374 24.9946 13.2027 24.9834 13.1703C24.9722 13.138 24.9556 13.1085 24.9347 13.0837C24.9137 13.0588 24.8888 13.039 24.8613 13.0255C24.8337 13.0119 24.8042 13.0049 24.7744 13.0048Z" fill="white"/>
<path d="M43.478 22.1035V23H39.0065V15.1185H40.068V22.1035H43.478ZM46.3769 17.3405C46.7839 17.3405 47.1506 17.4083 47.4769 17.544C47.8033 17.6797 48.0819 17.8722 48.3129 18.1215C48.5439 18.3708 48.7199 18.6733 48.8409 19.029C48.9656 19.381 49.0279 19.7752 49.0279 20.2115C49.0279 20.6515 48.9656 21.0475 48.8409 21.3995C48.7199 21.7515 48.5439 22.0522 48.3129 22.3015C48.0819 22.5508 47.8033 22.7433 47.4769 22.879C47.1506 23.011 46.7839 23.077 46.3769 23.077C45.9663 23.077 45.5959 23.011 45.2659 22.879C44.9396 22.7433 44.6609 22.5508 44.4299 22.3015C44.1989 22.0522 44.0211 21.7515 43.8964 21.3995C43.7754 21.0475 43.7149 20.6515 43.7149 20.2115C43.7149 19.7752 43.7754 19.381 43.8964 19.029C44.0211 18.6733 44.1989 18.3708 44.4299 18.1215C44.6609 17.8722 44.9396 17.6797 45.2659 17.544C45.5959 17.4083 45.9663 17.3405 46.3769 17.3405ZM46.3769 22.3125C46.9269 22.3125 47.3376 22.1292 47.6089 21.7625C47.8803 21.3922 48.0159 20.877 48.0159 20.217C48.0159 19.5533 47.8803 19.0363 47.6089 18.666C47.3376 18.2957 46.9269 18.1105 46.3769 18.1105C46.0983 18.1105 45.8544 18.1582 45.6454 18.2535C45.4401 18.3488 45.2678 18.4863 45.1284 18.666C44.9928 18.8457 44.8901 19.0675 44.8204 19.3315C44.7544 19.5918 44.7214 19.887 44.7214 20.217C44.7214 20.877 44.8571 21.3922 45.1284 21.7625C45.4034 22.1292 45.8196 22.3125 46.3769 22.3125ZM52.1789 20.2775C52.3769 20.2775 52.5511 20.25 52.7014 20.195C52.8517 20.14 52.9782 20.063 53.0809 19.964C53.1836 19.865 53.2606 19.7477 53.3119 19.612C53.3632 19.4727 53.3889 19.3205 53.3889 19.1555C53.3889 18.8145 53.2844 18.5432 53.0754 18.3415C52.8701 18.1398 52.5712 18.039 52.1789 18.039C51.7829 18.039 51.4804 18.1398 51.2714 18.3415C51.0661 18.5432 50.9634 18.8145 50.9634 19.1555C50.9634 19.3205 50.9891 19.4727 51.0404 19.612C51.0954 19.7477 51.1742 19.865 51.2769 19.964C51.3796 20.063 51.5061 20.14 51.6564 20.195C51.8067 20.25 51.9809 20.2775 52.1789 20.2775ZM53.9444 23.3025C53.9444 23.1668 53.9059 23.0568 53.8289 22.9725C53.7519 22.8882 53.6474 22.8222 53.5154 22.7745C53.3871 22.7268 53.2367 22.6938 53.0644 22.6755C52.8921 22.6535 52.7087 22.637 52.5144 22.626C52.3237 22.615 52.1294 22.604 51.9314 22.593C51.7334 22.582 51.5427 22.5637 51.3594 22.538C51.1541 22.6333 50.9854 22.7543 50.8534 22.901C50.7251 23.044 50.6609 23.2127 50.6609 23.407C50.6609 23.5317 50.6921 23.6472 50.7544 23.7535C50.8204 23.8635 50.9194 23.957 51.0514 24.034C51.1834 24.1147 51.3484 24.177 51.5464 24.221C51.7481 24.2687 51.9846 24.2925 52.2559 24.2925C52.5199 24.2925 52.7564 24.2687 52.9654 24.221C53.1744 24.1733 53.3504 24.1055 53.4934 24.0175C53.6401 23.9295 53.7519 23.825 53.8289 23.704C53.9059 23.583 53.9444 23.4492 53.9444 23.3025ZM54.9399 17.6485V18.0115C54.9399 18.1325 54.8629 18.2095 54.7089 18.2425L54.0764 18.325C54.2011 18.567 54.2634 18.8347 54.2634 19.128C54.2634 19.3993 54.2102 19.6468 54.1039 19.8705C54.0012 20.0905 53.8582 20.2793 53.6749 20.437C53.4916 20.5947 53.2716 20.7157 53.0149 20.8C52.7582 20.8843 52.4796 20.9265 52.1789 20.9265C51.9186 20.9265 51.6729 20.8953 51.4419 20.833C51.3246 20.9063 51.2347 20.9852 51.1724 21.0695C51.1101 21.1502 51.0789 21.2327 51.0789 21.317C51.0789 21.449 51.1321 21.5498 51.2384 21.6195C51.3484 21.6855 51.4914 21.7332 51.6674 21.7625C51.8434 21.7918 52.0432 21.8102 52.2669 21.8175C52.4942 21.8248 52.7252 21.8377 52.9599 21.856C53.1982 21.8707 53.4292 21.8982 53.6529 21.9385C53.8802 21.9788 54.0819 22.0448 54.2579 22.1365C54.4339 22.2282 54.5751 22.3547 54.6814 22.516C54.7914 22.6773 54.8464 22.8863 54.8464 23.143C54.8464 23.3813 54.7859 23.6123 54.6649 23.836C54.5476 24.0597 54.3771 24.2577 54.1534 24.43C53.9297 24.606 53.6547 24.7453 53.3284 24.848C53.0057 24.9543 52.6409 25.0075 52.2339 25.0075C51.8269 25.0075 51.4712 24.9672 51.1669 24.8865C50.8626 24.8058 50.6096 24.6977 50.4079 24.562C50.2062 24.4263 50.0541 24.2687 49.9514 24.089C49.8524 23.913 49.8029 23.7278 49.8029 23.5335C49.8029 23.2585 49.8891 23.0257 50.0614 22.835C50.2337 22.6443 50.4702 22.4922 50.7709 22.3785C50.6059 22.3052 50.4739 22.208 50.3749 22.087C50.2796 21.9623 50.2319 21.7955 50.2319 21.5865C50.2319 21.5058 50.2466 21.4233 50.2759 21.339C50.3052 21.251 50.3492 21.1648 50.4079 21.0805C50.4702 20.9925 50.5454 20.91 50.6334 20.833C50.7214 20.756 50.8241 20.6882 50.9414 20.6295C50.6664 20.4755 50.4519 20.272 50.2979 20.019C50.1439 19.7623 50.0669 19.4653 50.0669 19.128C50.0669 18.8567 50.1182 18.611 50.2209 18.391C50.3272 18.1673 50.4739 17.9785 50.6609 17.8245C50.8479 17.6668 51.0697 17.5458 51.3264 17.4615C51.5867 17.3772 51.8709 17.335 52.1789 17.335C52.4209 17.335 52.6464 17.3625 52.8554 17.4175C53.0644 17.4688 53.2551 17.5458 53.4274 17.6485H54.9399ZM56.9863 17.4285V23H56.0073V17.4285H56.9863ZM57.1953 15.6795C57.1953 15.7748 57.1751 15.8647 57.1348 15.949C57.0981 16.0297 57.0468 16.103 56.9808 16.169C56.9184 16.2313 56.8433 16.2808 56.7553 16.3175C56.6709 16.3542 56.5811 16.3725 56.4858 16.3725C56.3904 16.3725 56.3006 16.3542 56.2163 16.3175C56.1356 16.2808 56.0641 16.2313 56.0018 16.169C55.9394 16.103 55.8899 16.0297 55.8533 15.949C55.8166 15.8647 55.7983 15.7748 55.7983 15.6795C55.7983 15.5842 55.8166 15.4943 55.8533 15.41C55.8899 15.322 55.9394 15.2468 56.0018 15.1845C56.0641 15.1185 56.1356 15.0672 56.2163 15.0305C56.3006 14.9938 56.3904 14.9755 56.4858 14.9755C56.5811 14.9755 56.6709 14.9938 56.7553 15.0305C56.8433 15.0672 56.9184 15.1185 56.9808 15.1845C57.0468 15.2468 57.0981 15.322 57.1348 15.41C57.1751 15.4943 57.1953 15.5842 57.1953 15.6795ZM59.5188 18.237C59.6398 18.1013 59.7682 17.9785 59.9038 17.8685C60.0395 17.7585 60.1825 17.665 60.3328 17.588C60.4868 17.5073 60.6482 17.4468 60.8168 17.4065C60.9892 17.3625 61.1743 17.3405 61.3723 17.3405C61.6767 17.3405 61.9443 17.3918 62.1753 17.4945C62.41 17.5935 62.6043 17.7365 62.7583 17.9235C62.916 18.1068 63.0352 18.3287 63.1158 18.589C63.1965 18.8493 63.2368 19.1372 63.2368 19.4525V23H62.2523V19.4525C62.2523 19.0308 62.1552 18.7045 61.9608 18.4735C61.7702 18.2388 61.4787 18.1215 61.0863 18.1215C60.7967 18.1215 60.5253 18.1912 60.2723 18.3305C60.023 18.4698 59.792 18.6587 59.5793 18.897V23H58.5948V17.4285H59.1833C59.3227 17.4285 59.4088 17.4963 59.4418 17.632L59.5188 18.237ZM75.001 17.4285L73.197 23H72.4215C72.3262 23 72.2602 22.9377 72.2235 22.813L70.9915 19.0345C70.9622 18.9502 70.9383 18.8658 70.92 18.7815C70.9017 18.6935 70.8833 18.6073 70.865 18.523C70.8467 18.6073 70.8283 18.6935 70.81 18.7815C70.7917 18.8658 70.7678 18.952 70.7385 19.04L69.4845 22.813C69.4515 22.9377 69.3782 23 69.2645 23H68.5275L66.7235 17.4285H67.4935C67.5705 17.4285 67.6347 17.4487 67.686 17.489C67.741 17.5293 67.7777 17.577 67.796 17.632L68.863 21.218C68.9253 21.482 68.9748 21.7313 69.0115 21.966C69.0445 21.845 69.0775 21.7222 69.1105 21.5975C69.1472 21.4728 69.1857 21.3463 69.226 21.218L70.403 17.61C70.4213 17.555 70.4525 17.5092 70.4965 17.4725C70.5442 17.4358 70.601 17.4175 70.667 17.4175H71.096C71.1693 17.4175 71.2298 17.4358 71.2775 17.4725C71.3252 17.5092 71.3582 17.555 71.3765 17.61L72.526 21.218C72.5663 21.3463 72.603 21.4728 72.636 21.5975C72.669 21.7222 72.7002 21.845 72.7295 21.966C72.7478 21.845 72.7698 21.724 72.7955 21.603C72.8248 21.4783 72.856 21.35 72.889 21.218L73.978 17.632C73.9963 17.5733 74.0312 17.5257 74.0825 17.489C74.1338 17.4487 74.1943 17.4285 74.264 17.4285H75.001ZM76.9882 17.4285V23H76.0092V17.4285H76.9882ZM77.1972 15.6795C77.1972 15.7748 77.177 15.8647 77.1367 15.949C77.1 16.0297 77.0487 16.103 76.9827 16.169C76.9204 16.2313 76.8452 16.2808 76.7572 16.3175C76.6729 16.3542 76.583 16.3725 76.4877 16.3725C76.3924 16.3725 76.3025 16.3542 76.2182 16.3175C76.1375 16.2808 76.066 16.2313 76.0037 16.169C75.9414 16.103 75.8919 16.0297 75.8552 15.949C75.8185 15.8647 75.8002 15.7748 75.8002 15.6795C75.8002 15.5842 75.8185 15.4943 75.8552 15.41C75.8919 15.322 75.9414 15.2468 76.0037 15.1845C76.066 15.1185 76.1375 15.0672 76.2182 15.0305C76.3025 14.9938 76.3924 14.9755 76.4877 14.9755C76.583 14.9755 76.6729 14.9938 76.7572 15.0305C76.8452 15.0672 76.9204 15.1185 76.9827 15.1845C77.0487 15.2468 77.1 15.322 77.1367 15.41C77.177 15.4943 77.1972 15.5842 77.1972 15.6795ZM80.3073 23.088C79.8673 23.088 79.5281 22.9652 79.2898 22.7195C79.0551 22.4738 78.9378 22.12 78.9378 21.658V18.248H78.2668C78.2081 18.248 78.1586 18.2315 78.1183 18.1985C78.078 18.1618 78.0578 18.1068 78.0578 18.0335V17.643L78.9708 17.5275L79.1963 15.806C79.2073 15.751 79.2311 15.707 79.2678 15.674C79.3081 15.6373 79.3595 15.619 79.4218 15.619H79.9168V17.5385H81.5283V18.248H79.9168V21.592C79.9168 21.8267 79.9736 22.0008 80.0873 22.1145C80.201 22.2282 80.3476 22.285 80.5273 22.285C80.63 22.285 80.718 22.2722 80.7913 22.2465C80.8683 22.2172 80.9343 22.186 80.9893 22.153C81.0443 22.12 81.0901 22.0907 81.1268 22.065C81.1671 22.0357 81.202 22.021 81.2313 22.021C81.2826 22.021 81.3285 22.0522 81.3688 22.1145L81.6548 22.582C81.4861 22.7397 81.2826 22.8643 81.0443 22.956C80.806 23.044 80.5603 23.088 80.3073 23.088ZM83.5237 18.171C83.762 17.918 84.026 17.7163 84.3157 17.566C84.6053 17.4157 84.939 17.3405 85.3167 17.3405C85.621 17.3405 85.8887 17.3918 86.1197 17.4945C86.3543 17.5935 86.5487 17.7365 86.7027 17.9235C86.8603 18.1068 86.9795 18.3287 87.0602 18.589C87.1408 18.8493 87.1812 19.1372 87.1812 19.4525V23H86.1967V19.4525C86.1967 19.0308 86.0995 18.7045 85.9052 18.4735C85.7145 18.2388 85.423 18.1215 85.0307 18.1215C84.741 18.1215 84.4697 18.1912 84.2167 18.3305C83.9673 18.4698 83.7363 18.6587 83.5237 18.897V23H82.5392V14.8985H83.5237V18.171ZM91.8504 23V18.2645L91.2344 18.193C91.1574 18.1747 91.0932 18.1472 91.0419 18.1105C90.9942 18.0702 90.9704 18.0133 90.9704 17.94V17.5385H91.8504V16.9995C91.8504 16.6805 91.8944 16.3982 91.9824 16.1525C92.0741 15.9032 92.2024 15.6942 92.3674 15.5255C92.5361 15.3532 92.7377 15.223 92.9724 15.135C93.2071 15.047 93.4711 15.003 93.7644 15.003C94.0137 15.003 94.2429 15.0397 94.4519 15.113L94.4299 15.6025C94.4226 15.6905 94.3731 15.7382 94.2814 15.7455C94.1934 15.7528 94.0742 15.7565 93.9239 15.7565C93.7552 15.7565 93.6012 15.7785 93.4619 15.8225C93.3262 15.8665 93.2089 15.938 93.1099 16.037C93.0109 16.136 92.9339 16.2662 92.8789 16.4275C92.8276 16.5888 92.8019 16.7887 92.8019 17.027V17.5385H94.4079V18.248H92.8349V23H91.8504ZM98.3311 20.492C97.8801 20.5067 97.4951 20.5433 97.1761 20.602C96.8608 20.657 96.6023 20.7303 96.4006 20.822C96.2026 20.9137 96.0578 21.0218 95.9661 21.1465C95.8781 21.2712 95.8341 21.4105 95.8341 21.5645C95.8341 21.7112 95.858 21.8377 95.9056 21.944C95.9533 22.0503 96.0175 22.1383 96.0981 22.208C96.1825 22.274 96.2796 22.3235 96.3896 22.3565C96.5033 22.3858 96.6243 22.4005 96.7526 22.4005C96.925 22.4005 97.0826 22.384 97.2256 22.351C97.3686 22.3143 97.5025 22.263 97.6271 22.197C97.7555 22.131 97.8765 22.0522 97.9901 21.9605C98.1075 21.8688 98.2211 21.7643 98.3311 21.647V20.492ZM95.1686 18.215C95.4766 17.918 95.8085 17.6962 96.1641 17.5495C96.5198 17.4028 96.914 17.3295 97.3466 17.3295C97.6583 17.3295 97.9351 17.3808 98.1771 17.4835C98.4191 17.5862 98.6226 17.7292 98.7876 17.9125C98.9526 18.0958 99.0773 18.3177 99.1616 18.578C99.246 18.8383 99.2881 19.1243 99.2881 19.436V23H98.8536C98.7583 23 98.685 22.9853 98.6336 22.956C98.5823 22.923 98.542 22.8607 98.5126 22.769L98.4026 22.241C98.256 22.3767 98.113 22.4977 97.9736 22.604C97.8343 22.7067 97.6876 22.7947 97.5336 22.868C97.3796 22.9377 97.2146 22.9908 97.0386 23.0275C96.8663 23.0678 96.6738 23.088 96.4611 23.088C96.2448 23.088 96.0413 23.0587 95.8506 23C95.66 22.9377 95.4931 22.846 95.3501 22.725C95.2108 22.604 95.099 22.4518 95.0146 22.2685C94.934 22.0815 94.8936 21.8615 94.8936 21.6085C94.8936 21.3885 94.9541 21.1777 95.0751 20.976C95.1961 20.7707 95.3923 20.5892 95.6636 20.4315C95.935 20.2738 96.2888 20.1455 96.7251 20.0465C97.1615 19.9438 97.6968 19.8852 98.3311 19.8705V19.436C98.3311 19.0033 98.2376 18.677 98.0506 18.457C97.8636 18.2333 97.5905 18.1215 97.2311 18.1215C96.9891 18.1215 96.7856 18.1527 96.6206 18.215C96.4593 18.2737 96.3181 18.3415 96.1971 18.4185C96.0798 18.4918 95.9771 18.5597 95.8891 18.622C95.8048 18.6807 95.7205 18.71 95.6361 18.71C95.5701 18.71 95.5133 18.6935 95.4656 18.6605C95.418 18.6238 95.3776 18.5798 95.3446 18.5285L95.1686 18.215ZM104.657 18.4185C104.628 18.4588 104.598 18.49 104.569 18.512C104.54 18.534 104.499 18.545 104.448 18.545C104.393 18.545 104.332 18.523 104.266 18.479C104.2 18.4313 104.118 18.38 104.019 18.325C103.924 18.27 103.804 18.2205 103.661 18.1765C103.522 18.1288 103.35 18.105 103.144 18.105C102.869 18.105 102.627 18.1545 102.418 18.2535C102.209 18.3488 102.033 18.4882 101.89 18.6715C101.751 18.8548 101.645 19.0767 101.571 19.337C101.502 19.5973 101.467 19.8888 101.467 20.2115C101.467 20.5488 101.505 20.8495 101.582 21.1135C101.659 21.3738 101.768 21.5938 101.907 21.7735C102.05 21.9495 102.22 22.0852 102.418 22.1805C102.62 22.2722 102.846 22.318 103.095 22.318C103.333 22.318 103.529 22.2905 103.683 22.2355C103.837 22.1768 103.964 22.1127 104.063 22.043C104.166 21.9733 104.25 21.911 104.316 21.856C104.386 21.7973 104.453 21.768 104.519 21.768C104.6 21.768 104.662 21.7992 104.706 21.8615L104.981 22.219C104.86 22.3693 104.723 22.4977 104.569 22.604C104.415 22.7103 104.248 22.8002 104.068 22.8735C103.892 22.9432 103.707 22.9945 103.513 23.0275C103.319 23.0605 103.121 23.077 102.919 23.077C102.571 23.077 102.246 23.0128 101.945 22.8845C101.648 22.7562 101.39 22.571 101.17 22.329C100.95 22.0833 100.778 21.7827 100.653 21.427C100.528 21.0713 100.466 20.6662 100.466 20.2115C100.466 19.7972 100.523 19.414 100.636 19.062C100.754 18.71 100.922 18.4075 101.142 18.1545C101.366 17.8978 101.639 17.698 101.962 17.555C102.288 17.412 102.662 17.3405 103.084 17.3405C103.476 17.3405 103.821 17.4047 104.118 17.533C104.419 17.6577 104.684 17.8355 104.915 18.0665L104.657 18.4185ZM109.665 19.6065C109.665 19.3792 109.632 19.172 109.566 18.985C109.503 18.7943 109.41 18.6312 109.285 18.4955C109.164 18.3562 109.016 18.2498 108.84 18.1765C108.664 18.0995 108.464 18.061 108.24 18.061C107.771 18.061 107.399 18.1985 107.124 18.4735C106.852 18.7448 106.684 19.1225 106.618 19.6065H109.665ZM110.457 22.219C110.336 22.3657 110.191 22.494 110.022 22.604C109.853 22.7103 109.672 22.7983 109.478 22.868C109.287 22.9377 109.089 22.989 108.884 23.022C108.678 23.0587 108.475 23.077 108.273 23.077C107.888 23.077 107.532 23.0128 107.206 22.8845C106.883 22.7525 106.603 22.5618 106.365 22.3125C106.13 22.0595 105.947 21.7478 105.815 21.3775C105.683 21.0072 105.617 20.5818 105.617 20.1015C105.617 19.7128 105.675 19.3498 105.793 19.0125C105.914 18.6752 106.086 18.3837 106.31 18.138C106.533 17.8887 106.806 17.6943 107.129 17.555C107.452 17.412 107.815 17.3405 108.218 17.3405C108.552 17.3405 108.86 17.3973 109.142 17.511C109.428 17.621 109.674 17.7823 109.879 17.995C110.088 18.204 110.251 18.4643 110.369 18.776C110.486 19.084 110.545 19.436 110.545 19.832C110.545 19.986 110.528 20.0887 110.495 20.14C110.462 20.1913 110.4 20.217 110.308 20.217H106.585C106.596 20.569 106.643 20.8752 106.728 21.1355C106.816 21.3958 106.937 21.614 107.091 21.79C107.245 21.9623 107.428 22.0925 107.641 22.1805C107.853 22.2648 108.092 22.307 108.356 22.307C108.601 22.307 108.812 22.2795 108.988 22.2245C109.168 22.1658 109.322 22.1035 109.45 22.0375C109.578 21.9715 109.685 21.911 109.769 21.856C109.857 21.7973 109.932 21.768 109.995 21.768C110.075 21.768 110.138 21.7992 110.182 21.8615L110.457 22.219ZM112.732 21.658C112.911 21.9 113.108 22.0705 113.32 22.1695C113.537 22.2685 113.773 22.318 114.03 22.318C114.554 22.318 114.956 22.1328 115.234 21.7625C115.513 21.3922 115.652 20.8403 115.652 20.107C115.652 19.425 115.528 18.9245 115.278 18.6055C115.033 18.2828 114.681 18.1215 114.222 18.1215C113.903 18.1215 113.625 18.1948 113.386 18.3415C113.152 18.4882 112.933 18.6953 112.732 18.963V21.658ZM112.732 18.2315C112.966 17.9602 113.23 17.7438 113.524 17.5825C113.821 17.4212 114.162 17.3405 114.547 17.3405C114.873 17.3405 115.166 17.4028 115.427 17.5275C115.691 17.6522 115.914 17.8337 116.098 18.072C116.281 18.3067 116.42 18.5927 116.516 18.93C116.615 19.2673 116.664 19.6468 116.664 20.0685C116.664 20.5195 116.609 20.9302 116.499 21.3005C116.389 21.6708 116.23 21.988 116.021 22.252C115.815 22.5123 115.564 22.7158 115.267 22.8625C114.97 23.0055 114.637 23.077 114.266 23.077C113.9 23.077 113.59 23.0092 113.337 22.8735C113.087 22.7342 112.869 22.538 112.682 22.285L112.633 22.791C112.603 22.9303 112.519 23 112.38 23H111.747V14.8985H112.732V18.2315ZM120.251 17.3405C120.658 17.3405 121.025 17.4083 121.351 17.544C121.677 17.6797 121.956 17.8722 122.187 18.1215C122.418 18.3708 122.594 18.6733 122.715 19.029C122.84 19.381 122.902 19.7752 122.902 20.2115C122.902 20.6515 122.84 21.0475 122.715 21.3995C122.594 21.7515 122.418 22.0522 122.187 22.3015C121.956 22.5508 121.677 22.7433 121.351 22.879C121.025 23.011 120.658 23.077 120.251 23.077C119.84 23.077 119.47 23.011 119.14 22.879C118.814 22.7433 118.535 22.5508 118.304 22.3015C118.073 22.0522 117.895 21.7515 117.77 21.3995C117.649 21.0475 117.589 20.6515 117.589 20.2115C117.589 19.7752 117.649 19.381 117.77 19.029C117.895 18.6733 118.073 18.3708 118.304 18.1215C118.535 17.8722 118.814 17.6797 119.14 17.544C119.47 17.4083 119.84 17.3405 120.251 17.3405ZM120.251 22.3125C120.801 22.3125 121.212 22.1292 121.483 21.7625C121.754 21.3922 121.89 20.877 121.89 20.217C121.89 19.5533 121.754 19.0363 121.483 18.666C121.212 18.2957 120.801 18.1105 120.251 18.1105C119.972 18.1105 119.728 18.1582 119.519 18.2535C119.314 18.3488 119.142 18.4863 119.002 18.666C118.867 18.8457 118.764 19.0675 118.694 19.3315C118.628 19.5918 118.595 19.887 118.595 20.217C118.595 20.877 118.731 21.3922 119.002 21.7625C119.277 22.1292 119.694 22.3125 120.251 22.3125ZM126.492 17.3405C126.899 17.3405 127.266 17.4083 127.592 17.544C127.918 17.6797 128.197 17.8722 128.428 18.1215C128.659 18.3708 128.835 18.6733 128.956 19.029C129.081 19.381 129.143 19.7752 129.143 20.2115C129.143 20.6515 129.081 21.0475 128.956 21.3995C128.835 21.7515 128.659 22.0522 128.428 22.3015C128.197 22.5508 127.918 22.7433 127.592 22.879C127.266 23.011 126.899 23.077 126.492 23.077C126.081 23.077 125.711 23.011 125.381 22.879C125.055 22.7433 124.776 22.5508 124.545 22.3015C124.314 22.0522 124.136 21.7515 124.012 21.3995C123.891 21.0475 123.83 20.6515 123.83 20.2115C123.83 19.7752 123.891 19.381 124.012 19.029C124.136 18.6733 124.314 18.3708 124.545 18.1215C124.776 17.8722 125.055 17.6797 125.381 17.544C125.711 17.4083 126.081 17.3405 126.492 17.3405ZM126.492 22.3125C127.042 22.3125 127.453 22.1292 127.724 21.7625C127.995 21.3922 128.131 20.877 128.131 20.217C128.131 19.5533 127.995 19.0363 127.724 18.666C127.453 18.2957 127.042 18.1105 126.492 18.1105C126.213 18.1105 125.97 18.1582 125.761 18.2535C125.555 18.3488 125.383 18.4863 125.244 18.666C125.108 18.8457 125.005 19.0675 124.936 19.3315C124.87 19.5918 124.837 19.887 124.837 20.217C124.837 20.877 124.972 21.3922 125.244 21.7625C125.519 22.1292 125.935 22.3125 126.492 22.3125ZM131.369 14.8985V19.667H131.622C131.696 19.667 131.756 19.6578 131.804 19.6395C131.855 19.6175 131.908 19.5753 131.963 19.513L133.723 17.6265C133.775 17.5642 133.828 17.5165 133.883 17.4835C133.942 17.4468 134.019 17.4285 134.114 17.4285H134.999L132.948 19.612C132.849 19.7367 132.743 19.8338 132.629 19.9035C132.695 19.9475 132.754 19.9988 132.805 20.0575C132.86 20.1125 132.911 20.1767 132.959 20.25L135.137 23H134.262C134.178 23 134.105 22.9872 134.042 22.9615C133.984 22.9322 133.932 22.8808 133.888 22.8075L132.057 20.525C132.002 20.448 131.947 20.3985 131.892 20.3765C131.841 20.3508 131.76 20.338 131.65 20.338H131.369V23H130.385V14.8985H131.369Z" fill="white"/>
</svg>
