<svg width="174" height="60" viewBox="0 0 174 60" fill="none" xmlns="http://www.w3.org/2000/svg">
<path d="M48.2045 24.4361C48.2045 36.567 38.309 46.4011 26.1022 46.4011C13.8955 46.4011 4 36.567 4 24.4361C4 12.3052 13.8955 2.47119 26.1022 2.47119C38.309 2.47119 48.2045 12.3052 48.2045 24.4361ZM13.5652 24.4361C13.5652 31.3172 19.1782 36.8953 26.1022 36.8953C33.0262 36.8953 38.6393 31.3172 38.6393 24.4361C38.6393 17.5551 33.0262 11.977 26.1022 11.977C19.1782 11.977 13.5652 17.5551 13.5652 24.4361Z" fill="url(#paint0_linear)"/>
<g filter="url(#filter0_d)">
<path d="M58.5422 36.5013L58.5339 36.4952C55.9614 34.6129 54.6112 31.8665 54.4037 28.4569L54.3068 26.8657H55.9009H61.7153C60.9101 26.5327 60.1802 26.1998 59.5277 25.8663L59.5155 25.86L59.5155 25.86C58.1318 25.1367 56.9587 24.0924 55.9925 22.7639C54.9142 21.2812 54.452 19.4539 54.48 17.4031C54.4818 15.3243 55.015 13.4634 56.1517 11.9044L56.1549 11.9001L56.1549 11.9001C57.2808 10.3676 58.7892 9.22891 60.63 8.47449L60.6379 8.47126L60.6379 8.47128C62.4753 7.73039 64.5015 7.37402 66.6945 7.37402C70.3412 7.37402 73.4194 8.21593 75.765 10.0661C77.0012 11.0304 77.9285 12.1971 78.5558 13.5418H79.4649H88.163H89.4715L89.6491 14.8381L90.3416 19.8918L91.4403 14.7295L91.6931 13.5418H92.9074H102.278H103.481L103.742 14.7168L104.979 20.2922L105.734 14.8362L105.913 13.5418H107.22H115.325H117.223L116.784 15.3885L115.792 19.5663C115.806 19.5354 115.82 19.5046 115.834 19.4739L115.838 19.4648L115.838 19.4648C116.754 17.514 118.032 15.9631 119.698 14.8917C121.349 13.8043 123.204 13.265 125.222 13.265C126.878 13.265 128.394 13.6117 129.713 14.3669C129.772 14.3997 129.831 14.4331 129.89 14.4672V13.5418H131.39H140.127H141.627V15.0418V23.0633C141.841 21.7759 142.198 20.5768 142.707 19.4739L142.711 19.4648C143.627 17.514 144.905 15.9631 146.571 14.8917C148.221 13.8043 150.076 13.265 152.094 13.265C153.751 13.265 155.267 13.6117 156.586 14.3669C156.645 14.3997 156.704 14.4331 156.762 14.4672V13.5418H158.262H167H168.5V15.0418V36.9452C168.5 39.2148 168.082 41.3239 167.223 43.2497C166.326 45.2611 164.87 46.8586 162.913 48.0338C160.924 49.2449 158.456 49.7923 155.613 49.7923C151.801 49.7923 148.588 48.8941 146.138 46.9347L58.5422 36.5013ZM58.5422 36.5013L58.5506 36.5073C61.0489 38.2832 64.1412 39.1174 67.7224 39.1174C70.1063 39.1174 72.2474 38.7059 74.0993 37.8255C75.9324 36.954 77.3898 35.7196 78.4028 34.1051L78.4028 34.1051L78.4097 34.094C79.4081 32.4715 79.8974 30.6542 79.8974 28.682C79.8974 26.7799 79.4014 25.0792 78.3147 23.6868C77.3475 22.4476 76.1843 21.4632 74.8286 20.7533C74.0114 20.3166 73.0565 19.8751 71.9694 19.428H78.0415H78.9581L83.2633 37.6849L83.5359 38.8406H84.7233H94.6075H95.8059L96.0705 37.6718L97.4123 31.7454L98.6758 37.6543L98.9295 38.8406H100.143H110.027H111.212L111.486 37.6873L114.558 24.7595C114.526 25.2268 114.51 25.7042 114.51 26.1912C114.51 28.7036 114.933 30.9664 115.83 32.9401L115.836 32.9527L115.842 32.9651C116.76 34.8909 118.036 36.4327 119.69 37.5248L119.699 37.5303L119.707 37.5356C121.358 38.5945 123.21 39.1174 125.222 39.1174C126.873 39.1174 128.384 38.7862 129.701 38.0619L129.713 38.055L129.725 38.0479C129.781 38.0162 129.835 37.9839 129.89 37.9512V38.8406H131.39H140.127H141.627V37.3406V29.3266C141.841 30.6186 142.196 31.8255 142.703 32.9401L142.709 32.9527L142.715 32.9651C143.615 34.854 144.86 36.3735 146.468 37.4616M58.5422 36.5013L146.468 37.4616M146.468 37.4616H143.515H141.856L142.023 39.1122C142.349 42.3488 143.711 44.9985 146.136 46.9333L146.468 37.4616ZM153.808 38.9877C154.8 38.8305 155.727 38.5274 156.573 38.0619L156.586 38.055L156.598 38.0479C156.628 38.031 156.657 38.014 156.686 37.9968C156.593 38.5397 156.442 38.7474 156.383 38.8006C156.157 39.0067 155.755 39.2012 154.981 39.2012C154.303 39.2012 153.959 39.0793 153.808 38.9877ZM66.9873 29.1803C66.9565 29.1454 66.898 29.06 66.8426 28.8887C66.9896 28.9635 67.12 29.0348 67.2345 29.1026L67.2524 29.1133L67.2707 29.1234C67.3773 29.1826 67.4464 29.2339 67.4902 29.2725C67.4542 29.2756 67.4132 29.2775 67.3666 29.2775C67.0691 29.2775 67.0063 29.2028 66.9894 29.1827C66.9886 29.1818 66.9879 29.181 66.9873 29.1803ZM129.376 24.4392C129.654 24.7413 129.89 25.2564 129.89 26.1912C129.89 27.126 129.654 27.641 129.376 27.9432C129.073 28.2732 128.705 28.4472 128.147 28.4472C127.59 28.4472 127.222 28.2732 126.919 27.9432C126.641 27.6411 126.405 27.126 126.405 26.1912C126.405 25.2564 126.641 24.7413 126.919 24.4392C127.222 24.1091 127.59 23.9352 128.147 23.9352C128.705 23.9352 129.073 24.1091 129.376 24.4392ZM156.249 24.4392C156.527 24.7413 156.762 25.2564 156.762 26.1912C156.762 27.126 156.527 27.641 156.249 27.9432C155.945 28.2732 155.578 28.4472 155.02 28.4472C154.463 28.4472 154.095 28.2732 153.791 27.9432C153.513 27.641 153.278 27.126 153.278 26.1912C153.278 25.2564 153.513 24.7413 153.791 24.4392C154.095 24.1091 154.463 23.9352 155.02 23.9352C155.578 23.9352 155.945 24.1091 156.249 24.4392Z" stroke="#FF4C4C" stroke-width="3"/>
</g>
<g filter="url(#filter1_d)">
<path d="M50.4011 22.9259C50.4011 35.5876 40.1369 45.8518 27.4752 45.8518C14.8136 45.8518 4.54932 35.5876 4.54932 22.9259C4.54932 10.2643 14.8136 0 27.4752 0C40.1369 0 50.4011 10.2643 50.4011 22.9259ZM14.471 22.9259C14.471 30.108 20.2932 35.9302 27.4752 35.9302C34.6573 35.9302 40.4795 30.108 40.4795 22.9259C40.4795 15.7439 34.6573 9.92166 27.4752 9.92166C20.2932 9.92166 14.471 15.7439 14.471 22.9259Z" fill="url(#paint1_linear)"/>
</g>
<path d="M17.0495 30.8457L32.9562 11.1298C34.9802 11.4675 37.5014 14.4819 38.509 15.9468L22.4001 35.1427C20.0274 34.1243 17.8444 31.8537 17.0495 30.8457Z" fill="url(#paint2_linear)"/>
<g filter="url(#filter2_d)">
<path d="M10.5691 21.0798V22.0371H13.1151V23.8748H10.5691V24.9752H13.4623V26.923H8V19.132H13.4623V21.0798H10.5691Z" fill="#15AB36"/>
<path d="M18.5504 26.923L17.0112 24.1279H16.9997V26.923H14.4305V19.132H18.2495C18.913 19.132 19.4801 19.2458 19.9507 19.4732C20.4213 19.6933 20.7724 19.9977 21.0038 20.3865C21.243 20.768 21.3626 21.2008 21.3626 21.685C21.3626 22.2059 21.2083 22.668 20.8997 23.0715C20.5988 23.475 20.1629 23.7648 19.5919 23.9409L21.3741 26.923H18.5504ZM16.9997 22.4993H18.0181C18.2649 22.4993 18.4501 22.448 18.5735 22.3453C18.697 22.2352 18.7587 22.0665 18.7587 21.8391C18.7587 21.6337 18.6931 21.4723 18.562 21.3549C18.4385 21.2375 18.2572 21.1788 18.0181 21.1788H16.9997V22.4993Z" fill="#15AB36"/>
<path d="M26.3032 26.923L24.764 24.1279H24.7525V26.923H22.1833V19.132H26.0023C26.6658 19.132 27.2329 19.2458 27.7035 19.4732C28.1741 19.6933 28.5252 19.9977 28.7566 20.3865C28.9958 20.768 29.1154 21.2008 29.1154 21.685C29.1154 22.2059 28.9611 22.668 28.6525 23.0715C28.3516 23.475 27.9157 23.7648 27.3447 23.9409L29.1269 26.923H26.3032ZM24.7525 22.4993H25.7709C26.0177 22.4993 26.2029 22.448 26.3263 22.3453C26.4498 22.2352 26.5115 22.0665 26.5115 21.8391C26.5115 21.6337 26.4459 21.4723 26.3148 21.3549C26.1913 21.2375 26.01 21.1788 25.7709 21.1788H24.7525V22.4993Z" fill="#15AB36"/>
<path d="M33.9287 27C33.1572 27 32.4474 26.8276 31.7993 26.4828C31.159 26.138 30.6498 25.6612 30.2717 25.0523C29.8937 24.4434 29.7047 23.7575 29.7047 22.9945C29.7047 22.2315 29.8937 21.5456 30.2717 20.9367C30.6498 20.3278 31.159 19.8547 31.7993 19.5172C32.4474 19.1724 33.1572 19 33.9287 19C34.7002 19 35.4061 19.1724 36.0465 19.5172C36.6868 19.8547 37.1922 20.3278 37.5625 20.9367C37.9406 21.5456 38.1296 22.2315 38.1296 22.9945C38.1296 23.7575 37.9406 24.4434 37.5625 25.0523C37.1922 25.6612 36.683 26.138 36.0349 26.4828C35.3946 26.8276 34.6925 27 33.9287 27ZM33.9287 24.7221C34.4379 24.7221 34.8314 24.5681 35.1091 24.26C35.3869 23.9445 35.5257 23.5227 35.5257 22.9945C35.5257 22.459 35.3869 22.0371 35.1091 21.729C34.8314 21.4136 34.4379 21.2558 33.9287 21.2558C33.4118 21.2558 33.0145 21.4136 32.7367 21.729C32.459 22.0371 32.3201 22.459 32.3201 22.9945C32.3201 23.5227 32.459 23.9445 32.7367 24.26C33.0145 24.5681 33.4118 24.7221 33.9287 24.7221Z" fill="#15AB36"/>
<path d="M43.1763 26.923L41.6371 24.1279H41.6255V26.923H39.0564V19.132H42.8754C43.5389 19.132 44.1059 19.2458 44.5766 19.4732C45.0472 19.6933 45.3982 19.9977 45.6297 20.3865C45.8688 20.768 45.9884 21.2008 45.9884 21.685C45.9884 22.2059 45.8341 22.668 45.5255 23.0715C45.2246 23.475 44.7887 23.7648 44.2178 23.9409L46 26.923H43.1763ZM41.6255 22.4993H42.6439C42.8908 22.4993 43.076 22.448 43.1994 22.3453C43.3229 22.2352 43.3846 22.0665 43.3846 21.8391C43.3846 21.6337 43.319 21.4723 43.1878 21.3549C43.0644 21.2375 42.8831 21.1788 42.6439 21.1788H41.6255V22.4993Z" fill="#15AB36"/>
<path d="M13.6151 22.0371V21.5798H13.9305V24.4752H13.4623H11.0691V24.3748H13.1151H13.6151V23.8748V22.0371ZM13.9305 18.632H13.4623H8H7.5V19.132V26.923V27.423H8H13.4623H13.9305H13.9623H14.4305H16.9997H17.4997V26.923V26.0514L18.1124 27.1642L18.2549 27.423H18.5504H21.3741H21.6833H22.1833H22.2554H24.7525H25.2525V26.923V26.0514L25.8652 27.1642L26.0077 27.423H26.3032H29.1269H30.0082L29.5561 26.6665L28.0731 24.185C28.4646 23.9851 28.7947 23.7163 29.0515 23.3729C29.1075 23.2995 29.1593 23.2244 29.207 23.1477C29.231 23.9381 29.4425 24.6646 29.8469 25.316C30.2718 26.0003 30.8462 26.5375 31.5623 26.923L31.5645 26.9242C32.2886 27.3095 33.0796 27.5 33.9287 27.5C34.7705 27.5 35.5543 27.3092 36.2709 26.9236C36.9945 26.5384 37.5704 26.0007 37.9885 25.3141C38.2724 24.8562 38.4611 24.3612 38.5564 23.833V26.923V27.423H39.0564H41.6255H42.1255V26.923V26.0514L42.7383 27.1642L42.8808 27.423H43.1763H46H46.8813L46.4292 26.6665L44.9462 24.185C45.3377 23.9851 45.6678 23.7163 45.9245 23.3729C46.3004 22.8804 46.4884 22.3116 46.4884 21.685C46.4884 21.1162 46.3471 20.5917 46.0564 20.1258C45.7669 19.642 45.3354 19.2766 44.7911 19.0215C44.2376 18.7547 43.5932 18.632 42.8754 18.632H39.0564H38.5564V19.132V22.156C38.4611 21.6278 38.2724 21.1328 37.9885 20.6749C37.5709 19.9891 36.999 19.4544 36.2816 19.0759C35.5645 18.6902 34.777 18.5 33.9287 18.5C33.0799 18.5 32.2892 18.6904 31.5653 19.0753C30.8476 19.4538 30.2722 19.9881 29.8469 20.673C29.7444 20.8381 29.6543 21.008 29.5765 21.1826C29.5165 20.805 29.3863 20.451 29.1832 20.1257C28.8938 19.642 28.4624 19.2767 27.9182 19.0216C27.3646 18.7548 26.7202 18.632 26.0023 18.632H22.1833H21.6833V19.132V20.6416C21.6175 20.4628 21.5334 20.2906 21.4305 20.1258C21.141 19.642 20.7096 19.2767 20.1653 19.0216C19.6118 18.7548 18.9674 18.632 18.2495 18.632H14.4305H13.9623H13.9305ZM21.6833 26.4657L20.3203 24.185C20.7118 23.9851 21.042 23.7163 21.2987 23.3729C21.4626 23.158 21.5909 22.9287 21.6833 22.6863V26.4657ZM18.2174 21.7172L18.2229 21.7224L18.2285 21.7275C18.2289 21.7277 18.2292 21.728 18.2296 21.7284C18.2377 21.7354 18.2587 21.7537 18.2587 21.8391C18.2587 21.9091 18.249 21.9475 18.2429 21.9644C18.2425 21.9654 18.2421 21.9664 18.2418 21.9672C18.2176 21.9782 18.1536 21.9993 18.0181 21.9993H17.4997V21.6788H18.0181C18.0981 21.6788 18.1493 21.6888 18.1794 21.6985C18.2074 21.7076 18.2161 21.7159 18.2174 21.7172ZM25.9702 21.7172L25.9757 21.7224L25.9813 21.7275C25.9816 21.7277 25.982 21.728 25.9824 21.7284C25.9905 21.7354 26.0115 21.7537 26.0115 21.8391C26.0115 21.9091 26.0018 21.9475 25.9956 21.9644C25.9953 21.9654 25.9949 21.9664 25.9946 21.9672C25.9704 21.9782 25.9064 21.9993 25.7709 21.9993H25.2525V21.6788H25.7709C25.8509 21.6788 25.9021 21.6888 25.9322 21.6985C25.96 21.7075 25.9688 21.7158 25.9702 21.7172L25.9702 21.7172ZM34.7338 22.0594L34.7338 22.0595L34.7377 22.0638C34.9108 22.2559 35.0257 22.5456 35.0257 22.9945C35.0257 23.4318 34.913 23.7249 34.7358 23.9273C34.5739 24.1057 34.3295 24.2221 33.9287 24.2221C33.5176 24.2221 33.2705 24.1041 33.11 23.9273C32.9328 23.7249 32.8201 23.4318 32.8201 22.9945C32.8201 22.5456 32.935 22.2559 33.1081 22.0638L33.1081 22.0638L33.112 22.0594C33.2735 21.876 33.5196 21.7558 33.9287 21.7558C34.3274 21.7558 34.5709 21.8744 34.7338 22.0594ZM42.8433 21.7172L42.8488 21.7224L42.8544 21.7275C42.8547 21.7277 42.8551 21.728 42.8554 21.7284C42.8635 21.7354 42.8846 21.7537 42.8846 21.8391C42.8846 21.9091 42.8749 21.9475 42.8687 21.9644C42.8683 21.9654 42.868 21.9664 42.8676 21.9672C42.8435 21.9782 42.7795 21.9993 42.6439 21.9993H42.1255V21.6788H42.6439C42.7239 21.6788 42.7752 21.6888 42.8053 21.6985C42.8331 21.7075 42.8418 21.7158 42.8433 21.7172L42.8433 21.7172Z" stroke="white"/>
</g>
<defs>
<filter id="filter0_d" x="48.7129" y="5.87402" width="125.287" height="53.4183" filterUnits="userSpaceOnUse" color-interpolation-filters="sRGB">
<feFlood flood-opacity="0" result="BackgroundImageFix"/>
<feColorMatrix in="SourceAlpha" type="matrix" values="0 0 0 0 0 0 0 0 0 0 0 0 0 0 0 0 0 0 127 0"/>
<feOffset dy="4"/>
<feGaussianBlur stdDeviation="2"/>
<feColorMatrix type="matrix" values="0 0 0 0 0 0 0 0 0 0 0 0 0 0 0 0 0 0 0.25 0"/>
<feBlend mode="normal" in2="BackgroundImageFix" result="effect1_dropShadow"/>
<feBlend mode="normal" in="SourceGraphic" in2="effect1_dropShadow" result="shape"/>
</filter>
<filter id="filter1_d" x="0.549316" y="0" width="53.8518" height="53.8518" filterUnits="userSpaceOnUse" color-interpolation-filters="sRGB">
<feFlood flood-opacity="0" result="BackgroundImageFix"/>
<feColorMatrix in="SourceAlpha" type="matrix" values="0 0 0 0 0 0 0 0 0 0 0 0 0 0 0 0 0 0 127 0"/>
<feOffset dy="4"/>
<feGaussianBlur stdDeviation="2"/>
<feColorMatrix type="matrix" values="0 0 0 0 0 0 0 0 0 0 0 0 0 0 0 0 0 0 0.25 0"/>
<feBlend mode="normal" in2="BackgroundImageFix" result="effect1_dropShadow"/>
<feBlend mode="normal" in="SourceGraphic" in2="effect1_dropShadow" result="shape"/>
</filter>
<filter id="filter2_d" x="3" y="18" width="48.7626" height="18" filterUnits="userSpaceOnUse" color-interpolation-filters="sRGB">
<feFlood flood-opacity="0" result="BackgroundImageFix"/>
<feColorMatrix in="SourceAlpha" type="matrix" values="0 0 0 0 0 0 0 0 0 0 0 0 0 0 0 0 0 0 127 0"/>
<feOffset dy="4"/>
<feGaussianBlur stdDeviation="2"/>
<feColorMatrix type="matrix" values="0 0 0 0 0 0 0 0 0 0 0 0 0 0 0 0 0 0 0.25 0"/>
<feBlend mode="normal" in2="BackgroundImageFix" result="effect1_dropShadow"/>
<feBlend mode="normal" in="SourceGraphic" in2="effect1_dropShadow" result="shape"/>
</filter>
<linearGradient id="paint0_linear" x1="40.8995" y1="10.7546" x2="11.3482" y2="48.9064" gradientUnits="userSpaceOnUse">
<stop offset="0.338542" stop-color="#EE4540" stop-opacity="0.59"/>
<stop offset="0.5625" stop-color="#ED1F19" stop-opacity="0.85"/>
</linearGradient>
<linearGradient id="paint1_linear" x1="38.1831" y1="5.90308" x2="16.3555" y2="42.4198" gradientUnits="userSpaceOnUse">
<stop stop-color="#E4231D"/>
<stop offset="1" stop-color="#FF544F"/>
</linearGradient>
<linearGradient id="paint2_linear" x1="29.9109" y1="10.6217" x2="25.7266" y2="35.6978" gradientUnits="userSpaceOnUse">
<stop stop-color="#E4231D"/>
<stop offset="1" stop-color="#FF625D"/>
</linearGradient>
</defs>
</svg>
