<svg width="1430" height="320" viewBox="0 0 1430 320" fill="none" xmlns="http://www.w3.org/2000/svg">
<path d="M2 120.5L1430 0V8.5L2 127.5V120.5Z" fill="#FFBD39"/>
<path d="M0 125.854L1430 8V310H0V125.854Z" fill="#3DBFB7" fill-opacity="0.88"/>
<path d="M661.319 175.571L658.006 189.747L646.228 180.925L641.447 177.343L637.728 174.558L618.606 160.232L614.887 157.447L610.106 153.865L514.674 84.0484L532.674 82.5487L661.319 175.571Z" fill="#EE4540"/>
<path d="M635.308 159.069C644.778 161.282 654.248 155.403 656.46 145.939C658.671 136.475 652.786 127.009 643.315 124.796C633.845 122.583 624.374 128.462 622.163 137.926C619.952 147.39 625.837 156.856 635.308 159.069Z" fill="#FFBD39"/>
<path d="M629.72 224.028C629.104 223.883 628.544 223.56 628.111 223.098C627.678 222.636 627.392 222.056 627.289 221.431C627.186 220.807 627.271 220.166 627.532 219.589C627.794 219.013 628.221 218.527 628.758 218.194C629.296 217.86 629.921 217.693 630.554 217.714C631.187 217.735 631.799 217.943 632.314 218.312C632.829 218.681 633.222 219.194 633.445 219.787C633.668 220.379 633.71 221.024 633.566 221.64C633.372 222.466 632.858 223.181 632.137 223.629C631.416 224.076 630.547 224.22 629.72 224.028V224.028ZM631.055 218.315C630.541 218.195 630.003 218.23 629.509 218.416C629.015 218.601 628.588 218.929 628.28 219.357C627.973 219.786 627.799 220.296 627.782 220.823C627.764 221.35 627.904 221.871 628.182 222.319C628.461 222.767 628.866 223.122 629.346 223.34C629.827 223.558 630.361 223.629 630.882 223.543C631.403 223.457 631.886 223.219 632.272 222.859C632.657 222.499 632.927 222.032 633.047 221.519C633.207 220.83 633.087 220.106 632.713 219.506C632.34 218.905 631.744 218.477 631.055 218.315V218.315Z" fill="#3F3D56"/>
<path d="M465.13 140.391L458.374 138.813L459.951 132.062L466.707 133.641L465.13 140.391ZM459.015 138.415L464.731 139.751L466.066 134.039L460.35 132.703L459.015 138.415Z" fill="#3F3D56"/>
<path d="M576.54 117.409L569.784 115.83L571.362 109.08L578.117 110.658L576.54 117.409ZM570.425 115.432L576.141 116.768L577.476 111.056L571.76 109.72L570.425 115.432Z" fill="#3F3D56"/>
<path d="M540.304 145.256L491.977 133.965L482.816 173.171L531.143 184.462L540.304 145.256Z" fill="#FFBD39"/>
<path d="M613.834 216.378L480.026 185.114L479.055 189.269L612.863 220.533L613.834 216.378Z" fill="#F2F2F2"/>
<path d="M528.511 181.657L479.664 170.244L488.946 130.518L537.792 141.931L528.511 181.657ZM480.305 169.846L528.112 181.016L537.151 142.329L489.344 131.159L480.305 169.846Z" fill="#3F3D56"/>
<path d="M603.781 171.451L557.013 160.524L556.042 164.678L602.81 175.605L603.781 171.451Z" fill="#FFBD39" fill-opacity="0.54"/>
<path opacity="0.3" d="M620.659 187.168L554.404 171.688L553.434 175.843L619.688 191.323L620.659 187.168Z" fill="#3DBFB7" fill-opacity="0.88"/>
<path d="M600.178 172.799L552.89 161.751L553.982 157.077L601.27 168.126L600.178 172.799ZM553.531 161.353L599.779 172.159L600.629 168.524L554.38 157.718L553.531 161.353Z" fill="#3F3D56"/>
<path d="M617.056 188.517L550.282 172.916L551.373 168.242L618.148 183.844L617.056 188.517ZM550.922 172.518L616.657 187.876L617.507 184.241L551.772 168.883L550.922 172.518Z" fill="#3F3D56"/>
<path d="M610.231 217.727L475.903 186.342L476.995 181.668L611.323 213.054L610.231 217.727ZM476.544 185.944L609.833 217.086L610.682 213.451L477.393 182.309L476.544 185.944Z" fill="#3F3D56"/>
<path d="M610.801 229.361L476.992 198.097L476.022 202.251L609.83 233.515L610.801 229.361Z" fill="#F2F2F2"/>
<path d="M607.198 230.709L472.87 199.324L473.962 194.65L608.29 226.036L607.198 230.709ZM473.511 198.926L606.799 230.069L607.649 226.434L474.36 195.291L473.511 198.926Z" fill="#3F3D56"/>
<path d="M607.768 242.343L473.959 211.079L472.989 215.233L606.797 246.497L607.768 242.343Z" fill="#F2F2F2"/>
<path d="M604.164 243.691L469.836 212.306L470.928 207.632L605.256 239.018L604.164 243.691ZM470.477 211.908L603.766 243.051L604.615 239.416L471.327 208.273L470.477 211.908Z" fill="#3F3D56"/>
<path d="M604.734 255.325L470.926 224.061L469.955 228.215L603.764 259.479L604.734 255.325Z" fill="#F2F2F2"/>
<path d="M601.131 256.674L466.803 225.288L467.895 220.615L602.223 252L601.131 256.674ZM467.444 224.891L600.733 256.033L601.582 252.398L468.293 221.256L467.444 224.891Z" fill="#3F3D56"/>
<path d="M601.701 268.307L467.893 237.043L466.922 241.198L600.73 272.462L601.701 268.307Z" fill="#F2F2F2"/>
<path d="M598.098 269.656L463.77 238.271L464.862 233.597L599.19 264.982L598.098 269.656ZM464.411 237.873L597.7 269.015L598.549 265.38L465.26 234.238L464.411 237.873Z" fill="#3F3D56"/>
<path d="M598.668 281.289L464.859 250.026L463.889 254.18L597.697 285.444L598.668 281.289Z" fill="#F2F2F2"/>
<path d="M595.065 282.638L460.737 251.253L461.829 246.579L596.157 277.965L595.065 282.638ZM461.378 250.855L594.666 281.997L595.516 278.362L462.227 247.22L461.378 250.855Z" fill="#3F3D56"/>
<path d="M600.382 310.307L447.217 274.521L486.62 105.879L639.785 141.665L600.382 310.307ZM447.858 274.123L599.984 309.667L639.144 142.063L487.018 106.519L447.858 274.123Z" fill="white"/>
<path d="M443.216 276.868C443.206 276.87 443.196 276.872 443.187 276.875C443.652 276.28 444.098 275.673 444.521 275.048C444.571 274.975 444.619 274.899 444.669 274.826C444.661 274.846 444.656 274.867 444.648 274.889C444.61 275.017 444.569 275.145 444.528 275.275C444.465 275.476 444.403 275.681 444.352 275.888C444.334 275.952 444.32 276.015 444.304 276.079C444.246 276.333 444.213 276.591 444.206 276.851L444.196 276.848C444.13 276.838 444.07 276.827 444.005 276.823C443.752 276.798 443.497 276.811 443.248 276.859C443.237 276.861 443.226 276.864 443.216 276.868V276.868Z" fill="url(#paint0_linear)"/>
<path opacity="0.1" d="M464.123 165.344C464.256 165.477 464.414 165.582 464.589 165.653C464.801 165.772 465.037 165.844 465.28 165.864C465.523 165.884 465.767 165.851 465.996 165.767L464.123 165.344Z" fill="black"/>
<path d="M513.693 148.129L512.405 147.776C512.24 147.72 512.076 147.738 511.918 147.828C511.758 147.918 511.651 148.053 511.595 148.233L503.85 175.041C503.795 175.221 503.812 175.39 503.902 175.549C503.992 175.709 504.127 175.816 504.307 175.871L505.594 176.224C505.761 176.28 505.923 176.263 506.082 176.173C506.242 176.082 506.349 175.947 506.404 175.768L514.15 148.959C514.205 148.779 514.188 148.61 514.098 148.45C514.008 148.291 513.873 148.184 513.693 148.129Z" fill="white"/>
<path d="M502.086 153.362C502.086 153.182 502.016 153.023 501.878 152.884L500.84 151.846C500.701 151.707 500.542 151.638 500.362 151.638C500.182 151.638 500.023 151.708 499.884 151.846L490.208 161.522C490.069 161.661 490 161.82 490 162C490 162.18 490.069 162.339 490.208 162.478L499.884 172.154C500.023 172.293 500.182 172.362 500.362 172.362C500.542 172.362 500.701 172.292 500.839 172.154L501.878 171.116C502.016 170.978 502.086 170.819 502.086 170.638C502.086 170.459 502.016 170.299 501.878 170.161L493.717 162L501.878 153.839C502.017 153.701 502.086 153.542 502.086 153.362Z" fill="white"/>
<path d="M527.792 161.522L518.116 151.845C517.977 151.707 517.818 151.638 517.638 151.638C517.458 151.638 517.299 151.707 517.16 151.845L516.123 152.884C515.984 153.022 515.915 153.181 515.915 153.361C515.915 153.542 515.984 153.701 516.123 153.839L524.283 162L516.123 170.161C515.984 170.299 515.915 170.459 515.915 170.638C515.915 170.819 515.984 170.978 516.123 171.116L517.16 172.154C517.299 172.293 517.458 172.361 517.638 172.361C517.818 172.361 517.977 172.292 518.116 172.154L527.792 162.477C527.931 162.339 528 162.18 528 162C528 161.82 527.931 161.66 527.792 161.522Z" fill="white"/>
<path d="M181.968 192.636V191.636H180.968V192.636H181.968ZM181.968 196.464H180.968V197.464H181.968V196.464ZM191.648 196.464H192.648V195.464H191.648V196.464ZM191.648 203.812V204.812H192.648V203.812H191.648ZM181.968 203.812V202.812H180.968V203.812H181.968ZM181.968 208.212H180.968V209.212H181.968V208.212ZM192.968 208.212H193.968V207.212H192.968V208.212ZM192.968 216V217H193.968V216H192.968ZM172.2 216H171.2V217H172.2V216ZM172.2 184.848V183.848H171.2V184.848H172.2ZM192.968 184.848H193.968V183.848H192.968V184.848ZM192.968 192.636V193.636H193.968V192.636H192.968ZM180.968 192.636V196.464H182.968V192.636H180.968ZM181.968 197.464H191.648V195.464H181.968V197.464ZM190.648 196.464V203.812H192.648V196.464H190.648ZM191.648 202.812H181.968V204.812H191.648V202.812ZM180.968 203.812V208.212H182.968V203.812H180.968ZM181.968 209.212H192.968V207.212H181.968V209.212ZM191.968 208.212V216H193.968V208.212H191.968ZM192.968 215H172.2V217H192.968V215ZM173.2 216V184.848H171.2V216H173.2ZM172.2 185.848H192.968V183.848H172.2V185.848ZM191.968 184.848V192.636H193.968V184.848H191.968ZM192.968 191.636H181.968V193.636H192.968V191.636ZM206.417 195.76H205.417V198.955L207.239 196.33L206.417 195.76ZM210.069 192.328L210.579 193.189L210.585 193.185L210.591 193.181L210.069 192.328ZM214.557 191.008H215.557V190.008H214.557V191.008ZM214.557 201.436V202.436H215.557V201.436H214.557ZM207.693 202.404L207.102 201.598L207.095 201.602L207.089 201.607L207.693 202.404ZM206.417 216V217H207.417V216H206.417ZM196.649 216H195.649V217H196.649V216ZM196.649 191.184V190.184H195.649V191.184H196.649ZM206.417 191.184H207.417V190.184H206.417V191.184ZM207.239 196.33C208.158 195.005 209.271 193.963 210.579 193.189L209.56 191.467C207.993 192.395 206.671 193.64 205.596 195.19L207.239 196.33ZM210.591 193.181C211.885 192.389 213.202 192.008 214.557 192.008V190.008C212.803 190.008 211.128 190.507 209.547 191.475L210.591 193.181ZM213.557 191.008V201.436H215.557V191.008H213.557ZM214.557 200.436H211.785V202.436H214.557V200.436ZM211.785 200.436C209.857 200.436 208.236 200.766 207.102 201.598L208.285 203.21C208.91 202.752 210.017 202.436 211.785 202.436V200.436ZM207.089 201.607C205.878 202.526 205.417 204.053 205.417 205.836H207.417C207.417 204.334 207.807 203.573 208.298 203.201L207.089 201.607ZM205.417 205.836V216H207.417V205.836H205.417ZM206.417 215H196.649V217H206.417V215ZM197.649 216V191.184H195.649V216H197.649ZM196.649 192.184H206.417V190.184H196.649V192.184ZM205.417 191.184V195.76H207.417V191.184H205.417ZM226.956 195.76H225.956V198.955L227.778 196.33L226.956 195.76ZM230.608 192.328L231.118 193.189L231.124 193.185L231.13 193.181L230.608 192.328ZM235.096 191.008H236.096V190.008H235.096V191.008ZM235.096 201.436V202.436H236.096V201.436H235.096ZM228.232 202.404L227.641 201.598L227.634 201.602L227.628 201.607L228.232 202.404ZM226.956 216V217H227.956V216H226.956ZM217.188 216H216.188V217H217.188V216ZM217.188 191.184V190.184H216.188V191.184H217.188ZM226.956 191.184H227.956V190.184H226.956V191.184ZM227.778 196.33C228.697 195.005 229.81 193.963 231.118 193.189L230.099 191.467C228.532 192.395 227.21 193.64 226.135 195.19L227.778 196.33ZM231.13 193.181C232.424 192.389 233.741 192.008 235.096 192.008V190.008C233.342 190.008 231.667 190.507 230.086 191.475L231.13 193.181ZM234.096 191.008V201.436H236.096V191.008H234.096ZM235.096 200.436H232.324V202.436H235.096V200.436ZM232.324 200.436C230.397 200.436 228.775 200.766 227.641 201.598L228.824 203.21C229.449 202.752 230.556 202.436 232.324 202.436V200.436ZM227.628 201.607C226.417 202.526 225.956 204.053 225.956 205.836H227.956C227.956 204.334 228.346 203.573 228.837 203.201L227.628 201.607ZM225.956 205.836V216H227.956V205.836H225.956ZM226.956 215H217.188V217H226.956V215ZM218.188 216V191.184H216.188V216H218.188ZM217.188 192.184H226.956V190.184H217.188V192.184ZM225.956 191.184V195.76H227.956V191.184H225.956ZM242.787 214.768L243.245 213.879L242.787 214.768ZM238.079 210.368L237.213 210.867L237.217 210.875L237.222 210.882L238.079 210.368ZM238.079 196.86L237.218 196.351L237.216 196.355L238.079 196.86ZM242.787 192.416L243.245 193.305L243.245 193.305L242.787 192.416ZM256.251 192.416L255.794 193.305L255.794 193.305L256.251 192.416ZM260.915 196.86L260.049 197.359L260.053 197.367L260.058 197.374L260.915 196.86ZM260.915 210.368L260.054 209.859L260.052 209.863L260.915 210.368ZM256.251 214.768L255.794 213.879L255.794 213.879L256.251 214.768ZM251.807 206.804L252.56 207.463L252.567 207.455L252.573 207.447L251.807 206.804ZM251.807 200.424L251.042 201.067L251.048 201.075L251.055 201.083L251.807 200.424ZM247.231 200.424L247.984 201.083L247.991 201.075L247.997 201.067L247.231 200.424ZM247.187 206.804L246.406 207.429L246.42 207.446L246.435 207.463L247.187 206.804ZM249.519 215.308C247.167 215.308 245.083 214.825 243.245 213.879L242.33 215.657C244.481 216.764 246.885 217.308 249.519 217.308V215.308ZM243.245 213.879C241.414 212.937 239.984 211.599 238.937 209.854L237.222 210.882C238.463 212.95 240.171 214.546 242.33 215.657L243.245 213.879ZM238.946 209.869C237.931 208.107 237.407 206.026 237.407 203.592H235.407C235.407 206.321 235.998 208.757 237.213 210.867L238.946 209.869ZM237.407 203.592C237.407 201.158 237.932 199.094 238.943 197.365L237.216 196.355C235.998 198.439 235.407 200.864 235.407 203.592H237.407ZM238.94 197.369C239.989 195.595 241.418 194.245 243.245 193.305L242.33 191.527C240.167 192.64 238.458 194.253 237.218 196.351L238.94 197.369ZM243.245 193.305C245.083 192.359 247.167 191.876 249.519 191.876V189.876C246.885 189.876 244.481 190.42 242.33 191.527L243.245 193.305ZM249.519 191.876C251.871 191.876 253.956 192.359 255.794 193.305L256.709 191.527C254.558 190.42 252.154 189.876 249.519 189.876V191.876ZM255.794 193.305C257.618 194.244 259.03 195.59 260.049 197.359L261.782 196.361C260.571 194.258 258.874 192.641 256.709 191.527L255.794 193.305ZM260.058 197.374C261.094 199.102 261.631 201.162 261.631 203.592H263.631C263.631 200.859 263.024 198.431 261.773 196.346L260.058 197.374ZM261.631 203.592C261.631 206.021 261.095 208.099 260.054 209.859L261.776 210.877C263.024 208.765 263.631 206.325 263.631 203.592H261.631ZM260.052 209.863C259.035 211.603 257.622 212.938 255.794 213.879L256.709 215.657C258.87 214.545 260.566 212.946 261.779 210.873L260.052 209.863ZM255.794 213.879C253.956 214.825 251.871 215.308 249.519 215.308V217.308C252.154 217.308 254.558 216.764 256.709 215.657L255.794 213.879ZM249.519 208.86C250.726 208.86 251.76 208.376 252.56 207.463L251.055 206.145C250.622 206.64 250.131 206.86 249.519 206.86V208.86ZM252.573 207.447C253.398 206.466 253.731 205.128 253.731 203.592H251.731C251.731 204.872 251.449 205.676 251.042 206.161L252.573 207.447ZM253.731 203.592C253.731 202.06 253.399 200.725 252.56 199.765L251.055 201.083C251.448 201.531 251.731 202.308 251.731 203.592H253.731ZM252.573 199.781C251.779 198.835 250.742 198.324 249.519 198.324V200.324C250.116 200.324 250.604 200.546 251.042 201.067L252.573 199.781ZM249.519 198.324C248.297 198.324 247.26 198.835 246.466 199.781L247.997 201.067C248.435 200.546 248.923 200.324 249.519 200.324V198.324ZM246.479 199.765C245.64 200.725 245.307 202.06 245.307 203.592H247.307C247.307 202.308 247.591 201.531 247.984 201.083L246.479 199.765ZM245.307 203.592C245.307 205.118 245.622 206.449 246.406 207.429L247.968 206.179C247.579 205.693 247.307 204.882 247.307 203.592H245.307ZM246.435 207.463C247.241 208.384 248.293 208.86 249.519 208.86V206.86C248.868 206.86 248.365 206.632 247.94 206.145L246.435 207.463ZM275.468 195.76H274.468V198.955L276.29 196.33L275.468 195.76ZM279.12 192.328L279.629 193.189L279.636 193.185L279.642 193.181L279.12 192.328ZM283.608 191.008H284.608V190.008H283.608V191.008ZM283.608 201.436V202.436H284.608V201.436H283.608ZM276.744 202.404L276.153 201.598L276.146 201.602L276.14 201.607L276.744 202.404ZM275.468 216V217H276.468V216H275.468ZM265.7 216H264.7V217H265.7V216ZM265.7 191.184V190.184H264.7V191.184H265.7ZM275.468 191.184H276.468V190.184H275.468V191.184ZM276.29 196.33C277.209 195.005 278.322 193.963 279.629 193.189L278.611 191.467C277.044 192.395 275.722 193.64 274.646 195.19L276.29 196.33ZM279.642 193.181C280.936 192.389 282.253 192.008 283.608 192.008V190.008C281.854 190.008 280.179 190.507 278.598 191.475L279.642 193.181ZM282.608 191.008V201.436H284.608V191.008H282.608ZM283.608 200.436H280.836V202.436H283.608V200.436ZM280.836 200.436C278.908 200.436 277.287 200.766 276.153 201.598L277.335 203.21C277.961 202.752 279.068 202.436 280.836 202.436V200.436ZM276.14 201.607C274.929 202.526 274.468 204.053 274.468 205.836H276.468C276.468 204.334 276.858 203.573 277.348 203.201L276.14 201.607ZM274.468 205.836V216H276.468V205.836H274.468ZM275.468 215H265.7V217H275.468V215ZM266.7 216V191.184H264.7V216H266.7ZM265.7 192.184H275.468V190.184H265.7V192.184ZM274.468 191.184V195.76H276.468V191.184H274.468ZM289.187 213.712L288.596 214.519L288.608 214.527L289.187 213.712ZM285.271 206.012V205.012H284.208L284.273 206.073L285.271 206.012ZM295.655 206.012L296.652 205.93L296.576 205.012H295.655V206.012ZM299.351 208.344L299.906 209.176L299.913 209.171L299.92 209.166L299.351 208.344ZM298.735 205.396L298.225 206.256L298.237 206.263L298.249 206.27L298.735 205.396ZM295.039 203.812L294.706 204.755L294.708 204.756L295.039 203.812ZM290.067 201.744L289.604 202.63L289.612 202.634L290.067 201.744ZM286.723 198.796L287.532 198.208L287.532 198.208L286.723 198.796ZM285.359 193.824L286.359 193.838L286.359 193.831V193.824H285.359ZM286.899 188.676L286.093 188.084L286.091 188.087L286.899 188.676ZM291.167 185.42L290.793 184.493L290.788 184.495L291.167 185.42ZM306.347 186.96L305.727 187.745L305.732 187.749L306.347 186.96ZM309.911 194.396V195.396H310.948L310.91 194.359L309.911 194.396ZM299.395 194.396L298.396 194.429L298.428 195.396H299.395V194.396ZM296.227 192.372L296.934 193.079L296.953 193.061L296.97 193.041L296.227 192.372ZM296.975 195.276L296.451 196.128L296.47 196.139L296.489 196.15L296.975 195.276ZM300.715 196.904L300.36 197.839L300.365 197.841L300.715 196.904ZM305.555 199.016L305.083 199.898L305.092 199.902L305.555 199.016ZM308.899 201.832L308.111 202.447L308.111 202.447L308.899 201.832ZM308.899 211.512L309.746 212.044L309.751 212.036L308.899 211.512ZM304.807 215.032L304.378 214.129L304.807 215.032ZM298.427 215.308C294.858 215.308 291.994 214.48 289.766 212.897L288.608 214.527C291.249 216.405 294.546 217.308 298.427 217.308V215.308ZM289.778 212.905C287.646 211.346 286.459 209.072 286.269 205.951L284.273 206.073C284.494 209.698 285.917 212.558 288.597 214.519L289.778 212.905ZM285.271 207.012H295.655V205.012H285.271V207.012ZM294.658 206.094C294.741 207.101 295.015 208.016 295.61 208.688C296.234 209.393 297.089 209.696 298.031 209.696V207.696C297.535 207.696 297.276 207.552 297.108 207.362C296.911 207.14 296.716 206.712 296.652 205.93L294.658 206.094ZM298.031 209.696C298.707 209.696 299.353 209.545 299.906 209.176L298.796 207.512C298.645 207.613 298.411 207.696 298.031 207.696V209.696ZM299.92 209.166C300.612 208.687 300.923 207.959 300.923 207.156H298.923C298.923 207.409 298.853 207.473 298.782 207.522L299.92 209.166ZM300.923 207.156C300.923 205.969 300.242 205.089 299.221 204.522L298.249 206.27C298.812 206.583 298.923 206.876 298.923 207.156H300.923ZM299.245 204.536C298.366 204.015 297.058 203.461 295.37 202.868L294.708 204.756C296.364 205.337 297.52 205.839 298.225 206.256L299.245 204.536ZM295.372 202.869C293.403 202.174 291.79 201.502 290.522 200.854L289.612 202.634C290.984 203.336 292.686 204.042 294.706 204.755L295.372 202.869ZM290.53 200.858C289.389 200.261 288.389 199.386 287.532 198.208L285.914 199.384C286.935 200.787 288.164 201.878 289.604 202.63L290.53 200.858ZM287.532 198.208C286.751 197.134 286.332 195.705 286.359 193.838L284.359 193.81C284.328 195.991 284.818 197.876 285.914 199.384L287.532 198.208ZM286.359 193.824C286.359 191.976 286.825 190.476 287.707 189.265L286.091 188.087C284.92 189.692 284.359 191.624 284.359 193.824H286.359ZM287.705 189.268C288.643 187.991 289.912 187.015 291.546 186.345L290.788 184.495C288.843 185.292 287.267 186.486 286.093 188.084L287.705 189.268ZM291.541 186.347C293.224 185.669 295.133 185.32 297.283 185.32V183.32C294.915 183.32 292.747 183.705 290.793 184.493L291.541 186.347ZM297.283 185.32C300.948 185.32 303.727 186.165 305.727 187.745L306.967 186.175C304.509 184.235 301.244 183.32 297.283 183.32V185.32ZM305.732 187.749C307.729 189.305 308.804 191.492 308.912 194.433L310.91 194.359C310.784 190.906 309.483 188.135 306.962 186.171L305.732 187.749ZM309.911 193.396H299.395V195.396H309.911V193.396ZM300.395 194.363C300.361 193.364 300.108 192.414 299.416 191.771L298.055 193.237C298.183 193.356 298.37 193.668 298.396 194.429L300.395 194.363ZM299.416 191.771C298.811 191.209 298.065 190.932 297.239 190.932V192.932C297.586 192.932 297.838 193.036 298.055 193.237L299.416 191.771ZM297.239 190.932C296.558 190.932 295.946 191.189 295.484 191.703L296.97 193.041C297.036 192.968 297.099 192.932 297.239 192.932V190.932ZM295.52 191.665C295.012 192.173 294.831 192.844 294.831 193.516H296.831C296.831 193.191 296.914 193.099 296.934 193.079L295.52 191.665ZM294.831 193.516C294.831 194.663 295.485 195.533 296.451 196.128L297.499 194.424C296.94 194.08 296.831 193.777 296.831 193.516H294.831ZM296.489 196.15C297.347 196.627 298.649 197.19 300.36 197.839L301.07 195.969C299.378 195.327 298.187 194.805 297.461 194.402L296.489 196.15ZM300.365 197.841C302.306 198.565 303.875 199.251 305.083 199.898L306.027 198.134C304.712 197.431 303.054 196.71 301.065 195.967L300.365 197.841ZM305.092 199.902C306.25 200.508 307.256 201.352 308.111 202.447L309.687 201.217C308.665 199.907 307.441 198.874 306.018 198.13L305.092 199.902ZM308.111 202.447C308.887 203.442 309.307 204.724 309.307 206.364H311.307C311.307 204.367 310.788 202.627 309.687 201.217L308.111 202.447ZM309.307 206.364C309.307 208.098 308.883 209.63 308.047 210.988L309.751 212.036C310.793 210.343 311.307 208.443 311.307 206.364H309.307ZM308.052 210.981C307.226 212.296 306.017 213.35 304.378 214.129L305.236 215.935C307.176 215.013 308.694 213.72 309.746 212.043L308.052 210.981ZM304.378 214.129C302.751 214.902 300.778 215.308 298.427 215.308V217.308C301.004 217.308 303.284 216.863 305.236 215.935L304.378 214.129ZM351.403 191.184L352.376 191.415L352.668 190.184H351.403V191.184ZM345.507 216V217H346.297L346.48 216.231L345.507 216ZM334.507 216L333.529 216.209L333.698 217H334.507V216ZM331.515 202.008L332.493 201.799L330.54 201.787L331.515 202.008ZM328.347 216V217H329.146L329.322 216.221L328.347 216ZM317.347 216L316.374 216.23L316.555 217H317.347V216ZM311.495 191.184V190.184H310.232L310.522 191.414L311.495 191.184ZM321.175 191.184L322.166 191.048L322.047 190.184H321.175V191.184ZM323.243 206.276L322.252 206.412L324.221 206.484L323.243 206.276ZM326.455 191.184V190.184H325.645L325.477 190.976L326.455 191.184ZM336.883 191.184L337.859 190.967L337.685 190.184H336.883V191.184ZM340.271 206.452L339.295 206.669L341.262 206.589L340.271 206.452ZM342.383 191.184V190.184H341.512L341.392 191.047L342.383 191.184ZM350.43 190.953L344.534 215.769L346.48 216.231L352.376 191.415L350.43 190.953ZM345.507 215H334.507V217H345.507V215ZM335.485 215.791L332.493 201.799L330.537 202.217L333.529 216.209L335.485 215.791ZM330.54 201.787L327.372 215.779L329.322 216.221L332.49 202.229L330.54 201.787ZM328.347 215H317.347V217H328.347V215ZM318.32 215.77L312.468 190.954L310.522 191.414L316.374 216.23L318.32 215.77ZM311.495 192.184H321.175V190.184H311.495V192.184ZM320.184 191.32L322.252 206.412L324.234 206.14L322.166 191.048L320.184 191.32ZM324.221 206.484L327.433 191.392L325.477 190.976L322.265 206.068L324.221 206.484ZM326.455 192.184H336.883V190.184H326.455V192.184ZM335.907 191.401L339.295 206.669L341.247 206.235L337.859 190.967L335.907 191.401ZM341.262 206.589L343.374 191.321L341.392 191.047L339.28 206.315L341.262 206.589ZM342.383 192.184H351.403V190.184H342.383V192.184ZM353.485 196.816L352.58 196.391L352.577 196.397L353.485 196.816ZM357.181 192.416L357.721 193.258L357.732 193.25L357.181 192.416ZM366.597 191.888L366.099 192.755L366.107 192.76L366.115 192.764L366.597 191.888ZM369.281 194.572L368.401 195.046L370.281 194.572H369.281ZM369.281 191.184V190.184H368.281V191.184H369.281ZM379.005 191.184H380.005V190.184H379.005V191.184ZM379.005 216V217H380.005V216H379.005ZM369.281 216H368.281V217H369.281V216ZM369.281 212.612H370.281L368.401 212.138L369.281 212.612ZM366.597 215.34L367.079 216.216L367.087 216.212L367.096 216.207L366.597 215.34ZM357.181 214.812L356.63 215.647L356.641 215.654L357.181 214.812ZM353.485 210.412L352.575 210.826L352.579 210.834L352.583 210.842L353.485 210.412ZM368.269 200.512L369.005 199.835L369.005 199.835L368.269 200.512ZM363.077 200.512L362.341 199.835L362.341 199.835L363.077 200.512ZM353.165 203.592C353.165 201.092 353.587 198.982 354.393 197.235L352.577 196.397C351.624 198.463 351.165 200.871 351.165 203.592H353.165ZM354.39 197.241C355.232 195.448 356.349 194.138 357.721 193.258L356.641 191.574C354.904 192.689 353.557 194.312 352.58 196.391L354.39 197.241ZM357.732 193.25C359.117 192.336 360.669 191.876 362.417 191.876V189.876C360.293 189.876 358.355 190.443 356.63 191.582L357.732 193.25ZM362.417 191.876C363.889 191.876 365.104 192.183 366.099 192.755L367.096 191.021C365.744 190.244 364.172 189.876 362.417 189.876V191.876ZM366.115 192.764C367.125 193.32 367.879 194.077 368.401 195.046L370.162 194.098C369.451 192.779 368.416 191.747 367.079 191.012L366.115 192.764ZM370.281 194.572V191.184H368.281V194.572H370.281ZM369.281 192.184H379.005V190.184H369.281V192.184ZM378.005 191.184V216H380.005V191.184H378.005ZM379.005 215H369.281V217H379.005V215ZM370.281 216V212.612H368.281V216H370.281ZM368.401 212.138C367.877 213.111 367.118 213.887 366.099 214.473L367.096 216.207C368.423 215.443 369.454 214.401 370.162 213.086L368.401 212.138ZM366.115 214.464C365.117 215.013 363.896 215.308 362.417 215.308V217.308C364.165 217.308 365.731 216.958 367.079 216.216L366.115 214.464ZM362.417 215.308C360.663 215.308 359.107 214.859 357.721 213.97L356.641 215.654C358.365 216.759 360.299 217.308 362.417 217.308V215.308ZM357.732 213.978C356.349 213.064 355.23 211.747 354.388 209.982L352.583 210.842C353.559 212.891 354.904 214.507 356.63 215.646L357.732 213.978ZM354.396 209.998C353.586 208.218 353.165 206.092 353.165 203.592H351.165C351.165 206.314 351.624 208.734 352.575 210.826L354.396 209.998ZM370.281 203.592C370.281 202.104 369.899 200.806 369.005 199.835L367.533 201.189C367.989 201.685 368.281 202.44 368.281 203.592H370.281ZM369.005 199.835C368.129 198.882 366.99 198.412 365.673 198.412V200.412C366.468 200.412 367.06 200.675 367.533 201.189L369.005 199.835ZM365.673 198.412C364.356 198.412 363.218 198.882 362.341 199.835L363.813 201.189C364.286 200.675 364.878 200.412 365.673 200.412V198.412ZM362.341 199.835C361.448 200.806 361.065 202.104 361.065 203.592H363.065C363.065 202.44 363.357 201.685 363.813 201.189L362.341 199.835ZM361.065 203.592C361.065 205.08 361.448 206.378 362.341 207.349L363.813 205.995C363.357 205.499 363.065 204.744 363.065 203.592H361.065ZM362.341 207.349C363.218 208.302 364.356 208.772 365.673 208.772V206.772C364.878 206.772 364.286 206.509 363.813 205.995L362.341 207.349ZM365.673 208.772C366.99 208.772 368.129 208.302 369.005 207.349L367.533 205.995C367.06 206.509 366.468 206.772 365.673 206.772V208.772ZM369.005 207.349C369.899 206.378 370.281 205.08 370.281 203.592H368.281C368.281 204.744 367.989 205.499 367.533 205.995L369.005 207.349ZM396.503 191.888L396.005 192.755L396.013 192.76L396.021 192.764L396.503 191.888ZM399.187 194.572L398.307 195.046L400.187 194.572H399.187ZM399.187 191.184V190.184H398.187V191.184H399.187ZM408.911 191.184H409.911V190.184H408.911V191.184ZM407.635 221.896L406.722 221.489L406.722 221.489L407.635 221.896ZM403.499 226.472L402.985 225.614L402.979 225.618L403.499 226.472ZM386.735 225.372L387.36 224.591L387.359 224.59L386.735 225.372ZM382.775 217.804V216.804H381.669L381.78 217.904L382.775 217.804ZM392.367 217.804L393.347 217.604L393.184 216.804H392.367V217.804ZM398.219 218.86L398.892 219.6L398.892 219.6L398.219 218.86ZM399.187 212.612H400.187L398.307 212.138L399.187 212.612ZM396.503 215.34L396.985 216.216L396.994 216.212L397.002 216.207L396.503 215.34ZM387.087 214.812L386.536 215.647L386.547 215.654L387.087 214.812ZM383.391 210.412L382.481 210.826L382.485 210.834L382.489 210.842L383.391 210.412ZM383.391 196.816L382.486 196.391L382.483 196.397L383.391 196.816ZM387.087 192.416L387.627 193.258L387.638 193.25L387.087 192.416ZM398.175 200.512L398.911 199.835L398.911 199.835L398.175 200.512ZM392.983 200.512L392.247 199.835L392.247 199.835L392.983 200.512ZM392.323 191.876C393.795 191.876 395.01 192.183 396.005 192.755L397.002 191.021C395.65 190.244 394.078 189.876 392.323 189.876V191.876ZM396.021 192.764C397.031 193.32 397.785 194.077 398.307 195.046L400.068 194.098C399.358 192.779 398.322 191.747 396.985 191.012L396.021 192.764ZM400.187 194.572V191.184H398.187V194.572H400.187ZM399.187 192.184H408.911V190.184H399.187V192.184ZM407.911 191.184V215.56H409.911V191.184H407.911ZM407.911 215.56C407.911 217.752 407.51 219.724 406.722 221.489L408.549 222.303C409.463 220.255 409.911 218.002 409.911 215.56H407.911ZM406.722 221.489C405.961 223.195 404.728 224.569 402.985 225.615L404.014 227.329C406.084 226.087 407.609 224.41 408.549 222.303L406.722 221.489ZM402.979 225.618C401.304 226.639 399.08 227.188 396.239 227.188V229.188C399.324 229.188 401.94 228.593 404.02 227.326L402.979 225.618ZM396.239 227.188C392.403 227.188 389.479 226.286 387.36 224.591L386.111 226.153C388.685 228.213 392.098 229.188 396.239 229.188V227.188ZM387.359 224.59C385.271 222.925 384.069 220.658 383.77 217.704L381.78 217.904C382.128 221.345 383.565 224.123 386.112 226.154L387.359 224.59ZM382.775 218.804H392.367V216.804H382.775V218.804ZM391.388 218.004C391.571 218.902 392.055 219.632 392.836 220.109C393.58 220.564 394.512 220.74 395.535 220.74V218.74C394.711 218.74 394.191 218.593 393.879 218.403C393.604 218.235 393.428 217.997 393.347 217.604L391.388 218.004ZM395.535 220.74C396.849 220.74 398.011 220.401 398.892 219.6L397.547 218.12C397.137 218.493 396.51 218.74 395.535 218.74V220.74ZM398.892 219.6C399.866 218.715 400.187 217.236 400.187 215.56H398.187C398.187 217.111 397.863 217.832 397.547 218.12L398.892 219.6ZM400.187 215.56V212.612H398.187V215.56H400.187ZM398.307 212.138C397.783 213.111 397.024 213.887 396.005 214.473L397.002 216.207C398.33 215.443 399.36 214.401 400.068 213.086L398.307 212.138ZM396.021 214.464C395.023 215.013 393.803 215.308 392.323 215.308V217.308C394.071 217.308 395.637 216.958 396.985 216.216L396.021 214.464ZM392.323 215.308C390.569 215.308 389.013 214.859 387.627 213.97L386.547 215.654C388.271 216.759 390.206 217.308 392.323 217.308V215.308ZM387.638 213.978C386.255 213.064 385.136 211.747 384.294 209.982L382.489 210.842C383.466 212.891 384.81 214.507 386.536 215.646L387.638 213.978ZM384.302 209.998C383.493 208.218 383.071 206.092 383.071 203.592H381.071C381.071 206.314 381.53 208.734 382.481 210.826L384.302 209.998ZM383.071 203.592C383.071 201.092 383.493 198.982 384.299 197.235L382.483 196.397C381.53 198.463 381.071 200.871 381.071 203.592H383.071ZM384.297 197.241C385.139 195.448 386.255 194.138 387.627 193.258L386.547 191.574C384.811 192.689 383.463 194.312 382.486 196.391L384.297 197.241ZM387.638 193.25C389.023 192.336 390.575 191.876 392.323 191.876V189.876C390.2 189.876 388.261 190.443 386.536 191.582L387.638 193.25ZM400.187 203.592C400.187 202.104 399.805 200.806 398.911 199.835L397.439 201.189C397.895 201.685 398.187 202.44 398.187 203.592H400.187ZM398.911 199.835C398.035 198.882 396.896 198.412 395.579 198.412V200.412C396.375 200.412 396.967 200.675 397.439 201.189L398.911 199.835ZM395.579 198.412C394.263 198.412 393.124 198.882 392.247 199.835L393.719 201.189C394.192 200.675 394.784 200.412 395.579 200.412V198.412ZM392.247 199.835C391.354 200.806 390.971 202.104 390.971 203.592H392.971C392.971 202.44 393.264 201.685 393.719 201.189L392.247 199.835ZM390.971 203.592C390.971 205.08 391.354 206.378 392.247 207.349L393.719 205.995C393.264 205.499 392.971 204.744 392.971 203.592H390.971ZM392.247 207.349C393.124 208.302 394.263 208.772 395.579 208.772V206.772C394.784 206.772 394.192 206.509 393.719 205.995L392.247 207.349ZM395.579 208.772C396.896 208.772 398.035 208.302 398.911 207.349L397.439 205.995C396.967 206.509 396.375 206.772 395.579 206.772V208.772ZM398.911 207.349C399.805 206.378 400.187 205.08 400.187 203.592H398.187C398.187 204.744 397.895 205.499 397.439 205.995L398.911 207.349Z" fill="white"/>
<defs>
<linearGradient id="paint0_linear" x1="443.668" y1="276.988" x2="444.198" y2="274.716" gradientUnits="userSpaceOnUse">
<stop stop-color="#808080" stop-opacity="0.25"/>
<stop offset="0.53514" stop-color="#808080" stop-opacity="0.12"/>
<stop offset="1" stop-color="#808080" stop-opacity="0.1"/>
</linearGradient>
</defs>
</svg>
