	  <svg
    width="15"
    height="15"
    viewBox="0 0 28 27"
    fill="none"
    xmlns="http://www.w3.org/2000/svg"
  >
    <path
      d="M27.6046 16.2218V26.4121H21.6969V16.9043C21.6969 14.5158 20.8424 12.8858 18.704 12.8858C17.0716 12.8858 16.1002 13.9843 15.6728 15.0469C15.5169 15.4268 15.4768 15.9556 15.4768 16.4873V26.4121H9.56713C9.56713 26.4121 9.64672 10.3089 9.56713 8.64053H15.4763V11.1596C15.4643 11.1784 15.4487 11.1987 15.4374 11.217H15.4763V11.1596C16.2613 9.95039 17.6634 8.22302 20.8017 8.22302C24.6898 8.22296 27.6046 10.763 27.6046 16.2218ZM3.38532 0.0737305C1.36362 0.0737305 0.0412598 1.39981 0.0412598 3.14365C0.0412598 4.84948 1.32536 6.2158 3.30689 6.2158H3.34636C5.40722 6.2158 6.68889 4.84974 6.68889 3.14365C6.65005 1.39981 5.40722 0.0737305 3.38532 0.0737305ZM0.392245 26.4121H6.29971V8.64053H0.392245V26.4121Z"
      fill="#313131"
    />
  </svg>