  <svg
    width="28"
    height="33"
    viewBox="0 0 28 33"
    fill="none"
    xmlns="http://www.w3.org/2000/svg"
  >
    <path
      fillRule="evenodd"
      clipRule="evenodd"
      d="M14 32.9412C15.8118 32.9412 17.2941 31.4588 17.2941 29.647H10.7059C10.7059 31.4588 12.1882 32.9412 14 32.9412ZM24.7059 23.0588V14C24.7059 8.89412 21.2471 4.77647 16.4706 3.62353V2.47059C16.4706 1.15294 15.3176 0 14 0C12.6824 0 11.5294 1.15294 11.5294 2.47059V3.62353C6.75294 4.77647 3.29412 8.89412 3.29412 14V23.0588L0 26.3529V28H28V26.3529L24.7059 23.0588ZM21.4118 24.7059H6.58824V14C6.58824 9.88234 9.88235 6.58822 14 6.58822C18.1176 6.58822 21.4118 9.88234 21.4118 14V24.7059Z"
      fill="black"
    />
    <circle cx="22" cy="8" r="5" fill="#3DBFB7" />
  </svg>