  <svg
    width="35"
    height="35"
    viewBox="0 0 35 35"
    fill="none"
    xmlns="http://www.w3.org/2000/svg"
  >
    <path
      fillRule="evenodd"
      clipRule="evenodd"
      d="M25 22H23.4L22.8 21.4C24.8 19.2 26 16.2 26 13C26 5.8 20.2 0 13 0C5.8 0 0 5.8 0 13C0 20.2 5.8 26 13 26C16.2 26 19.2 24.8 21.4 22.8L22 23.4V25L32 35L35 32L25 22ZM12.9998 22C7.9998 22 3.9998 18 3.9998 13C3.9998 7.99999 7.9998 3.99999 12.9998 3.99999C17.9998 3.99999 21.9998 7.99999 21.9998 13C21.9998 18 17.9998 22 12.9998 22Z"
      fill="black"
    />
  </svg>