<svg
  width="22"
  height="17"
  viewBox="0 0 32 22"
  fill="none"
  xmlns="http://www.w3.org/2000/svg"
>
  <path
    d="M29.8849 2.4329C29.0475 0.943372 28.1387 0.669393 26.2884 0.565203C24.44 0.43979 19.792 0.387695 15.7653 0.387695C11.7308 0.387695 7.08088 0.43979 5.23441 0.563274C3.38794 0.669393 2.47725 0.941443 1.63216 2.4329C0.769698 3.92049 0.325928 6.48278 0.325928 10.9938C0.325928 10.9977 0.325928 10.9996 0.325928 10.9996C0.325928 11.0034 0.325928 11.0054 0.325928 11.0054V11.0092C0.325928 15.501 0.769698 18.0825 1.63216 19.5547C2.47725 21.0442 3.38601 21.3143 5.23248 21.4398C7.08088 21.5478 11.7308 21.6115 15.7653 21.6115C19.792 21.6115 24.44 21.5478 26.2903 21.4417C28.1407 21.3163 29.0494 21.0462 29.8868 19.5566C30.757 18.0845 31.1969 15.5029 31.1969 11.0112C31.1969 11.0112 31.1969 11.0054 31.1969 11.0015V10.9957C31.1969 6.48278 30.757 3.92049 29.8849 2.4329ZM11.9025 16.7879V5.21128L21.5497 10.9996L11.9025 16.7879Z"
    fill="#313131"
  />
</svg>
