  <svg width="155" height="39" viewBox="0 0 155 39" fill="none" xmlns="http://www.w3.org/2000/svg">
    <rect x="0.5" y="0.5" width="154" height="38" rx="2.5" fill="#F9F9F9" stroke="#E7E7E7" />
    <path d="M46.478 22.1035V23H42.0065V15.1185H43.068V22.1035H46.478ZM49.3769 17.3405C49.7839 17.3405 50.1506 17.4083 50.4769 17.544C50.8033 17.6797 51.0819 17.8722 51.3129 18.1215C51.5439 18.3708 51.7199 18.6733 51.8409 19.029C51.9656 19.381 52.0279 19.7752 52.0279 20.2115C52.0279 20.6515 51.9656 21.0475 51.8409 21.3995C51.7199 21.7515 51.5439 22.0522 51.3129 22.3015C51.0819 22.5508 50.8033 22.7433 50.4769 22.879C50.1506 23.011 49.7839 23.077 49.3769 23.077C48.9663 23.077 48.5959 23.011 48.2659 22.879C47.9396 22.7433 47.6609 22.5508 47.4299 22.3015C47.1989 22.0522 47.0211 21.7515 46.8964 21.3995C46.7754 21.0475 46.7149 20.6515 46.7149 20.2115C46.7149 19.7752 46.7754 19.381 46.8964 19.029C47.0211 18.6733 47.1989 18.3708 47.4299 18.1215C47.6609 17.8722 47.9396 17.6797 48.2659 17.544C48.5959 17.4083 48.9663 17.3405 49.3769 17.3405ZM49.3769 22.3125C49.9269 22.3125 50.3376 22.1292 50.6089 21.7625C50.8803 21.3922 51.0159 20.877 51.0159 20.217C51.0159 19.5533 50.8803 19.0363 50.6089 18.666C50.3376 18.2957 49.9269 18.1105 49.3769 18.1105C49.0983 18.1105 48.8544 18.1582 48.6454 18.2535C48.4401 18.3488 48.2678 18.4863 48.1284 18.666C47.9928 18.8457 47.8901 19.0675 47.8204 19.3315C47.7544 19.5918 47.7214 19.887 47.7214 20.217C47.7214 20.877 47.8571 21.3922 48.1284 21.7625C48.4034 22.1292 48.8196 22.3125 49.3769 22.3125ZM55.1789 20.2775C55.3769 20.2775 55.5511 20.25 55.7014 20.195C55.8517 20.14 55.9782 20.063 56.0809 19.964C56.1836 19.865 56.2606 19.7477 56.3119 19.612C56.3632 19.4727 56.3889 19.3205 56.3889 19.1555C56.3889 18.8145 56.2844 18.5432 56.0754 18.3415C55.8701 18.1398 55.5712 18.039 55.1789 18.039C54.7829 18.039 54.4804 18.1398 54.2714 18.3415C54.0661 18.5432 53.9634 18.8145 53.9634 19.1555C53.9634 19.3205 53.9891 19.4727 54.0404 19.612C54.0954 19.7477 54.1742 19.865 54.2769 19.964C54.3796 20.063 54.5061 20.14 54.6564 20.195C54.8067 20.25 54.9809 20.2775 55.1789 20.2775ZM56.9444 23.3025C56.9444 23.1668 56.9059 23.0568 56.8289 22.9725C56.7519 22.8882 56.6474 22.8222 56.5154 22.7745C56.3871 22.7268 56.2367 22.6938 56.0644 22.6755C55.8921 22.6535 55.7087 22.637 55.5144 22.626C55.3237 22.615 55.1294 22.604 54.9314 22.593C54.7334 22.582 54.5427 22.5637 54.3594 22.538C54.1541 22.6333 53.9854 22.7543 53.8534 22.901C53.7251 23.044 53.6609 23.2127 53.6609 23.407C53.6609 23.5317 53.6921 23.6472 53.7544 23.7535C53.8204 23.8635 53.9194 23.957 54.0514 24.034C54.1834 24.1147 54.3484 24.177 54.5464 24.221C54.7481 24.2687 54.9846 24.2925 55.2559 24.2925C55.5199 24.2925 55.7564 24.2687 55.9654 24.221C56.1744 24.1733 56.3504 24.1055 56.4934 24.0175C56.6401 23.9295 56.7519 23.825 56.8289 23.704C56.9059 23.583 56.9444 23.4492 56.9444 23.3025ZM57.9399 17.6485V18.0115C57.9399 18.1325 57.8629 18.2095 57.7089 18.2425L57.0764 18.325C57.2011 18.567 57.2634 18.8347 57.2634 19.128C57.2634 19.3993 57.2102 19.6468 57.1039 19.8705C57.0012 20.0905 56.8582 20.2793 56.6749 20.437C56.4916 20.5947 56.2716 20.7157 56.0149 20.8C55.7582 20.8843 55.4796 20.9265 55.1789 20.9265C54.9186 20.9265 54.6729 20.8953 54.4419 20.833C54.3246 20.9063 54.2347 20.9852 54.1724 21.0695C54.1101 21.1502 54.0789 21.2327 54.0789 21.317C54.0789 21.449 54.1321 21.5498 54.2384 21.6195C54.3484 21.6855 54.4914 21.7332 54.6674 21.7625C54.8434 21.7918 55.0432 21.8102 55.2669 21.8175C55.4942 21.8248 55.7252 21.8377 55.9599 21.856C56.1982 21.8707 56.4292 21.8982 56.6529 21.9385C56.8802 21.9788 57.0819 22.0448 57.2579 22.1365C57.4339 22.2282 57.5751 22.3547 57.6814 22.516C57.7914 22.6773 57.8464 22.8863 57.8464 23.143C57.8464 23.3813 57.7859 23.6123 57.6649 23.836C57.5476 24.0597 57.3771 24.2577 57.1534 24.43C56.9297 24.606 56.6547 24.7453 56.3284 24.848C56.0057 24.9543 55.6409 25.0075 55.2339 25.0075C54.8269 25.0075 54.4712 24.9672 54.1669 24.8865C53.8626 24.8058 53.6096 24.6977 53.4079 24.562C53.2062 24.4263 53.0541 24.2687 52.9514 24.089C52.8524 23.913 52.8029 23.7278 52.8029 23.5335C52.8029 23.2585 52.8891 23.0257 53.0614 22.835C53.2337 22.6443 53.4702 22.4922 53.7709 22.3785C53.6059 22.3052 53.4739 22.208 53.3749 22.087C53.2796 21.9623 53.2319 21.7955 53.2319 21.5865C53.2319 21.5058 53.2466 21.4233 53.2759 21.339C53.3052 21.251 53.3492 21.1648 53.4079 21.0805C53.4702 20.9925 53.5454 20.91 53.6334 20.833C53.7214 20.756 53.8241 20.6882 53.9414 20.6295C53.6664 20.4755 53.4519 20.272 53.2979 20.019C53.1439 19.7623 53.0669 19.4653 53.0669 19.128C53.0669 18.8567 53.1182 18.611 53.2209 18.391C53.3272 18.1673 53.4739 17.9785 53.6609 17.8245C53.8479 17.6668 54.0697 17.5458 54.3264 17.4615C54.5867 17.3772 54.8709 17.335 55.1789 17.335C55.4209 17.335 55.6464 17.3625 55.8554 17.4175C56.0644 17.4688 56.2551 17.5458 56.4274 17.6485H57.9399ZM59.9863 17.4285V23H59.0073V17.4285H59.9863ZM60.1953 15.6795C60.1953 15.7748 60.1751 15.8647 60.1348 15.949C60.0981 16.0297 60.0468 16.103 59.9808 16.169C59.9184 16.2313 59.8433 16.2808 59.7553 16.3175C59.6709 16.3542 59.5811 16.3725 59.4858 16.3725C59.3904 16.3725 59.3006 16.3542 59.2163 16.3175C59.1356 16.2808 59.0641 16.2313 59.0018 16.169C58.9394 16.103 58.8899 16.0297 58.8533 15.949C58.8166 15.8647 58.7983 15.7748 58.7983 15.6795C58.7983 15.5842 58.8166 15.4943 58.8533 15.41C58.8899 15.322 58.9394 15.2468 59.0018 15.1845C59.0641 15.1185 59.1356 15.0672 59.2163 15.0305C59.3006 14.9938 59.3904 14.9755 59.4858 14.9755C59.5811 14.9755 59.6709 14.9938 59.7553 15.0305C59.8433 15.0672 59.9184 15.1185 59.9808 15.1845C60.0468 15.2468 60.0981 15.322 60.1348 15.41C60.1751 15.4943 60.1953 15.5842 60.1953 15.6795ZM62.5188 18.237C62.6398 18.1013 62.7682 17.9785 62.9038 17.8685C63.0395 17.7585 63.1825 17.665 63.3328 17.588C63.4868 17.5073 63.6482 17.4468 63.8168 17.4065C63.9892 17.3625 64.1743 17.3405 64.3723 17.3405C64.6767 17.3405 64.9443 17.3918 65.1753 17.4945C65.41 17.5935 65.6043 17.7365 65.7583 17.9235C65.916 18.1068 66.0352 18.3287 66.1158 18.589C66.1965 18.8493 66.2368 19.1372 66.2368 19.4525V23H65.2523V19.4525C65.2523 19.0308 65.1552 18.7045 64.9608 18.4735C64.7702 18.2388 64.4787 18.1215 64.0863 18.1215C63.7967 18.1215 63.5253 18.1912 63.2723 18.3305C63.023 18.4698 62.792 18.6587 62.5793 18.897V23H61.5948V17.4285H62.1833C62.3227 17.4285 62.4088 17.4963 62.4418 17.632L62.5188 18.237ZM78.001 17.4285L76.197 23H75.4215C75.3262 23 75.2602 22.9377 75.2235 22.813L73.9915 19.0345C73.9622 18.9502 73.9383 18.8658 73.92 18.7815C73.9017 18.6935 73.8833 18.6073 73.865 18.523C73.8467 18.6073 73.8283 18.6935 73.81 18.7815C73.7917 18.8658 73.7678 18.952 73.7385 19.04L72.4845 22.813C72.4515 22.9377 72.3782 23 72.2645 23H71.5275L69.7235 17.4285H70.4935C70.5705 17.4285 70.6347 17.4487 70.686 17.489C70.741 17.5293 70.7777 17.577 70.796 17.632L71.863 21.218C71.9253 21.482 71.9748 21.7313 72.0115 21.966C72.0445 21.845 72.0775 21.7222 72.1105 21.5975C72.1472 21.4728 72.1857 21.3463 72.226 21.218L73.403 17.61C73.4213 17.555 73.4525 17.5092 73.4965 17.4725C73.5442 17.4358 73.601 17.4175 73.667 17.4175H74.096C74.1693 17.4175 74.2298 17.4358 74.2775 17.4725C74.3252 17.5092 74.3582 17.555 74.3765 17.61L75.526 21.218C75.5663 21.3463 75.603 21.4728 75.636 21.5975C75.669 21.7222 75.7002 21.845 75.7295 21.966C75.7478 21.845 75.7698 21.724 75.7955 21.603C75.8248 21.4783 75.856 21.35 75.889 21.218L76.978 17.632C76.9963 17.5733 77.0312 17.5257 77.0825 17.489C77.1338 17.4487 77.1943 17.4285 77.264 17.4285H78.001ZM79.9882 17.4285V23H79.0092V17.4285H79.9882ZM80.1972 15.6795C80.1972 15.7748 80.177 15.8647 80.1367 15.949C80.1 16.0297 80.0487 16.103 79.9827 16.169C79.9204 16.2313 79.8452 16.2808 79.7572 16.3175C79.6729 16.3542 79.583 16.3725 79.4877 16.3725C79.3924 16.3725 79.3025 16.3542 79.2182 16.3175C79.1375 16.2808 79.066 16.2313 79.0037 16.169C78.9414 16.103 78.8919 16.0297 78.8552 15.949C78.8185 15.8647 78.8002 15.7748 78.8002 15.6795C78.8002 15.5842 78.8185 15.4943 78.8552 15.41C78.8919 15.322 78.9414 15.2468 79.0037 15.1845C79.066 15.1185 79.1375 15.0672 79.2182 15.0305C79.3025 14.9938 79.3924 14.9755 79.4877 14.9755C79.583 14.9755 79.6729 14.9938 79.7572 15.0305C79.8452 15.0672 79.9204 15.1185 79.9827 15.1845C80.0487 15.2468 80.1 15.322 80.1367 15.41C80.177 15.4943 80.1972 15.5842 80.1972 15.6795ZM83.3073 23.088C82.8673 23.088 82.5281 22.9652 82.2898 22.7195C82.0551 22.4738 81.9378 22.12 81.9378 21.658V18.248H81.2668C81.2081 18.248 81.1586 18.2315 81.1183 18.1985C81.078 18.1618 81.0578 18.1068 81.0578 18.0335V17.643L81.9708 17.5275L82.1963 15.806C82.2073 15.751 82.2311 15.707 82.2678 15.674C82.3081 15.6373 82.3595 15.619 82.4218 15.619H82.9168V17.5385H84.5283V18.248H82.9168V21.592C82.9168 21.8267 82.9736 22.0008 83.0873 22.1145C83.201 22.2282 83.3476 22.285 83.5273 22.285C83.63 22.285 83.718 22.2722 83.7913 22.2465C83.8683 22.2172 83.9343 22.186 83.9893 22.153C84.0443 22.12 84.0901 22.0907 84.1268 22.065C84.1671 22.0357 84.202 22.021 84.2313 22.021C84.2826 22.021 84.3285 22.0522 84.3688 22.1145L84.6548 22.582C84.4861 22.7397 84.2826 22.8643 84.0443 22.956C83.806 23.044 83.5603 23.088 83.3073 23.088ZM86.5237 18.171C86.762 17.918 87.026 17.7163 87.3157 17.566C87.6053 17.4157 87.939 17.3405 88.3167 17.3405C88.621 17.3405 88.8887 17.3918 89.1197 17.4945C89.3543 17.5935 89.5487 17.7365 89.7027 17.9235C89.8603 18.1068 89.9795 18.3287 90.0602 18.589C90.1408 18.8493 90.1812 19.1372 90.1812 19.4525V23H89.1967V19.4525C89.1967 19.0308 89.0995 18.7045 88.9052 18.4735C88.7145 18.2388 88.423 18.1215 88.0307 18.1215C87.741 18.1215 87.4697 18.1912 87.2167 18.3305C86.9673 18.4698 86.7363 18.6587 86.5237 18.897V23H85.5392V14.8985H86.5237V18.171ZM101.12 19.2105V22.2355C100.724 22.5215 100.301 22.736 99.8499 22.879C99.4026 23.0183 98.9112 23.088 98.3759 23.088C97.7416 23.088 97.1696 22.9908 96.6599 22.7965C96.1502 22.5985 95.7139 22.3235 95.3509 21.9715C94.9916 21.6158 94.7147 21.1905 94.5204 20.6955C94.3261 20.2005 94.2289 19.656 94.2289 19.062C94.2289 18.4607 94.3224 17.9125 94.5094 17.4175C94.7001 16.9225 94.9696 16.499 95.3179 16.147C95.6662 15.7913 96.0897 15.5163 96.5884 15.322C97.0871 15.1277 97.6444 15.0305 98.2604 15.0305C98.5721 15.0305 98.8617 15.0543 99.1294 15.102C99.3971 15.146 99.6446 15.212 99.8719 15.3C100.099 15.3843 100.31 15.4888 100.504 15.6135C100.699 15.7345 100.88 15.872 101.049 16.026L100.746 16.51C100.699 16.5833 100.636 16.631 100.559 16.653C100.486 16.6713 100.404 16.653 100.312 16.598C100.224 16.5467 100.123 16.4843 100.009 16.411C99.8957 16.3377 99.7564 16.268 99.5914 16.202C99.4301 16.1323 99.2376 16.0737 99.0139 16.026C98.7939 15.9783 98.5317 15.9545 98.2274 15.9545C97.7837 15.9545 97.3822 16.0278 97.0229 16.1745C96.6636 16.3175 96.3574 16.5247 96.1044 16.796C95.8514 17.0637 95.6571 17.39 95.5214 17.775C95.3857 18.1563 95.3179 18.5853 95.3179 19.062C95.3179 19.557 95.3876 20.0007 95.5269 20.393C95.6699 20.7817 95.8716 21.1135 96.1319 21.3885C96.3959 21.6598 96.7149 21.867 97.0889 22.01C97.4629 22.153 97.8827 22.2245 98.3484 22.2245C98.7151 22.2245 99.0396 22.1842 99.3219 22.1035C99.6079 22.0192 99.8866 21.9037 100.158 21.757V20.0245H98.9314C98.8617 20.0245 98.8049 20.0043 98.7609 19.964C98.7206 19.9237 98.7004 19.8742 98.7004 19.8155V19.2105H101.12ZM104.807 17.3405C105.214 17.3405 105.58 17.4083 105.907 17.544C106.233 17.6797 106.512 17.8722 106.743 18.1215C106.974 18.3708 107.15 18.6733 107.271 19.029C107.395 19.381 107.458 19.7752 107.458 20.2115C107.458 20.6515 107.395 21.0475 107.271 21.3995C107.15 21.7515 106.974 22.0522 106.743 22.3015C106.512 22.5508 106.233 22.7433 105.907 22.879C105.58 23.011 105.214 23.077 104.807 23.077C104.396 23.077 104.026 23.011 103.696 22.879C103.369 22.7433 103.091 22.5508 102.86 22.3015C102.629 22.0522 102.451 21.7515 102.326 21.3995C102.205 21.0475 102.145 20.6515 102.145 20.2115C102.145 19.7752 102.205 19.381 102.326 19.029C102.451 18.6733 102.629 18.3708 102.86 18.1215C103.091 17.8722 103.369 17.6797 103.696 17.544C104.026 17.4083 104.396 17.3405 104.807 17.3405ZM104.807 22.3125C105.357 22.3125 105.767 22.1292 106.039 21.7625C106.31 21.3922 106.446 20.877 106.446 20.217C106.446 19.5533 106.31 19.0363 106.039 18.666C105.767 18.2957 105.357 18.1105 104.807 18.1105C104.528 18.1105 104.284 18.1582 104.075 18.2535C103.87 18.3488 103.697 18.4863 103.558 18.666C103.422 18.8457 103.32 19.0675 103.25 19.3315C103.184 19.5918 103.151 19.887 103.151 20.217C103.151 20.877 103.287 21.3922 103.558 21.7625C103.833 22.1292 104.249 22.3125 104.807 22.3125ZM111.048 17.3405C111.455 17.3405 111.821 17.4083 112.148 17.544C112.474 17.6797 112.753 17.8722 112.984 18.1215C113.215 18.3708 113.391 18.6733 113.512 19.029C113.636 19.381 113.699 19.7752 113.699 20.2115C113.699 20.6515 113.636 21.0475 113.512 21.3995C113.391 21.7515 113.215 22.0522 112.984 22.3015C112.753 22.5508 112.474 22.7433 112.148 22.879C111.821 23.011 111.455 23.077 111.048 23.077C110.637 23.077 110.267 23.011 109.937 22.879C109.61 22.7433 109.332 22.5508 109.101 22.3015C108.87 22.0522 108.692 21.7515 108.567 21.3995C108.446 21.0475 108.386 20.6515 108.386 20.2115C108.386 19.7752 108.446 19.381 108.567 19.029C108.692 18.6733 108.87 18.3708 109.101 18.1215C109.332 17.8722 109.61 17.6797 109.937 17.544C110.267 17.4083 110.637 17.3405 111.048 17.3405ZM111.048 22.3125C111.598 22.3125 112.008 22.1292 112.28 21.7625C112.551 21.3922 112.687 20.877 112.687 20.217C112.687 19.5533 112.551 19.0363 112.28 18.666C112.008 18.2957 111.598 18.1105 111.048 18.1105C110.769 18.1105 110.525 18.1582 110.316 18.2535C110.111 18.3488 109.939 18.4863 109.799 18.666C109.664 18.8457 109.561 19.0675 109.491 19.3315C109.425 19.5918 109.392 19.887 109.392 20.217C109.392 20.877 109.528 21.3922 109.799 21.7625C110.074 22.1292 110.49 22.3125 111.048 22.3125ZM116.85 20.2775C117.048 20.2775 117.222 20.25 117.372 20.195C117.523 20.14 117.649 20.063 117.752 19.964C117.854 19.865 117.931 19.7477 117.983 19.612C118.034 19.4727 118.06 19.3205 118.06 19.1555C118.06 18.8145 117.955 18.5432 117.746 18.3415C117.541 18.1398 117.242 18.039 116.85 18.039C116.454 18.039 116.151 18.1398 115.942 18.3415C115.737 18.5432 115.634 18.8145 115.634 19.1555C115.634 19.3205 115.66 19.4727 115.711 19.612C115.766 19.7477 115.845 19.865 115.948 19.964C116.05 20.063 116.177 20.14 116.327 20.195C116.478 20.25 116.652 20.2775 116.85 20.2775ZM118.615 23.3025C118.615 23.1668 118.577 23.0568 118.5 22.9725C118.423 22.8882 118.318 22.8222 118.186 22.7745C118.058 22.7268 117.908 22.6938 117.735 22.6755C117.563 22.6535 117.38 22.637 117.185 22.626C116.995 22.615 116.8 22.604 116.602 22.593C116.404 22.582 116.214 22.5637 116.03 22.538C115.825 22.6333 115.656 22.7543 115.524 22.901C115.396 23.044 115.332 23.2127 115.332 23.407C115.332 23.5317 115.363 23.6472 115.425 23.7535C115.491 23.8635 115.59 23.957 115.722 24.034C115.854 24.1147 116.019 24.177 116.217 24.221C116.419 24.2687 116.655 24.2925 116.927 24.2925C117.191 24.2925 117.427 24.2687 117.636 24.221C117.845 24.1733 118.021 24.1055 118.164 24.0175C118.311 23.9295 118.423 23.825 118.5 23.704C118.577 23.583 118.615 23.4492 118.615 23.3025ZM119.611 17.6485V18.0115C119.611 18.1325 119.534 18.2095 119.38 18.2425L118.747 18.325C118.872 18.567 118.934 18.8347 118.934 19.128C118.934 19.3993 118.881 19.6468 118.775 19.8705C118.672 20.0905 118.529 20.2793 118.346 20.437C118.162 20.5947 117.942 20.7157 117.686 20.8C117.429 20.8843 117.15 20.9265 116.85 20.9265C116.589 20.9265 116.344 20.8953 116.113 20.833C115.995 20.9063 115.906 20.9852 115.843 21.0695C115.781 21.1502 115.75 21.2327 115.75 21.317C115.75 21.449 115.803 21.5498 115.909 21.6195C116.019 21.6855 116.162 21.7332 116.338 21.7625C116.514 21.7918 116.714 21.8102 116.938 21.8175C117.165 21.8248 117.396 21.8377 117.631 21.856C117.869 21.8707 118.1 21.8982 118.324 21.9385C118.551 21.9788 118.753 22.0448 118.929 22.1365C119.105 22.2282 119.246 22.3547 119.352 22.516C119.462 22.6773 119.517 22.8863 119.517 23.143C119.517 23.3813 119.457 23.6123 119.336 23.836C119.218 24.0597 119.048 24.2577 118.824 24.43C118.601 24.606 118.326 24.7453 117.999 24.848C117.677 24.9543 117.312 25.0075 116.905 25.0075C116.498 25.0075 116.142 24.9672 115.838 24.8865C115.533 24.8058 115.28 24.6977 115.079 24.562C114.877 24.4263 114.725 24.2687 114.622 24.089C114.523 23.913 114.474 23.7278 114.474 23.5335C114.474 23.2585 114.56 23.0257 114.732 22.835C114.905 22.6443 115.141 22.4922 115.442 22.3785C115.277 22.3052 115.145 22.208 115.046 22.087C114.95 21.9623 114.903 21.7955 114.903 21.5865C114.903 21.5058 114.917 21.4233 114.947 21.339C114.976 21.251 115.02 21.1648 115.079 21.0805C115.141 20.9925 115.216 20.91 115.304 20.833C115.392 20.756 115.495 20.6882 115.612 20.6295C115.337 20.4755 115.123 20.272 114.969 20.019C114.815 19.7623 114.738 19.4653 114.738 19.128C114.738 18.8567 114.789 18.611 114.892 18.391C114.998 18.1673 115.145 17.9785 115.332 17.8245C115.519 17.6668 115.741 17.5458 115.997 17.4615C116.258 17.3772 116.542 17.335 116.85 17.335C117.092 17.335 117.317 17.3625 117.526 17.4175C117.735 17.4688 117.926 17.5458 118.098 17.6485H119.611ZM121.635 14.8985V23H120.656V14.8985H121.635ZM126.952 19.6065C126.952 19.3792 126.919 19.172 126.853 18.985C126.79 18.7943 126.697 18.6312 126.572 18.4955C126.451 18.3562 126.303 18.2498 126.127 18.1765C125.951 18.0995 125.751 18.061 125.527 18.061C125.058 18.061 124.686 18.1985 124.411 18.4735C124.139 18.7448 123.971 19.1225 123.905 19.6065H126.952ZM127.744 22.219C127.623 22.3657 127.478 22.494 127.309 22.604C127.141 22.7103 126.959 22.7983 126.765 22.868C126.574 22.9377 126.376 22.989 126.171 23.022C125.965 23.0587 125.762 23.077 125.56 23.077C125.175 23.077 124.82 23.0128 124.493 22.8845C124.171 22.7525 123.89 22.5618 123.652 22.3125C123.417 22.0595 123.234 21.7478 123.102 21.3775C122.97 21.0072 122.904 20.5818 122.904 20.1015C122.904 19.7128 122.962 19.3498 123.08 19.0125C123.201 18.6752 123.373 18.3837 123.597 18.138C123.82 17.8887 124.094 17.6943 124.416 17.555C124.739 17.412 125.102 17.3405 125.505 17.3405C125.839 17.3405 126.147 17.3973 126.429 17.511C126.715 17.621 126.961 17.7823 127.166 17.995C127.375 18.204 127.538 18.4643 127.656 18.776C127.773 19.084 127.832 19.436 127.832 19.832C127.832 19.986 127.815 20.0887 127.782 20.14C127.749 20.1913 127.687 20.217 127.595 20.217H123.872C123.883 20.569 123.93 20.8752 124.015 21.1355C124.103 21.3958 124.224 21.614 124.378 21.79C124.532 21.9623 124.715 22.0925 124.928 22.1805C125.14 22.2648 125.379 22.307 125.643 22.307C125.888 22.307 126.099 22.2795 126.275 22.2245C126.455 22.1658 126.609 22.1035 126.737 22.0375C126.866 21.9715 126.972 21.911 127.056 21.856C127.144 21.7973 127.219 21.768 127.282 21.768C127.362 21.768 127.425 21.7992 127.469 21.8615L127.744 22.219Z" fill="#3F3D56" />
    <path fillRule="evenodd" clipRule="evenodd" d="M28.7239 19.1591C28.7239 18.6628 28.6794 18.1855 28.5966 17.7273H22.002V20.435H25.7703C25.608 21.3101 25.1147 22.0514 24.3731 22.5478V24.3042H26.636C27.9601 23.0855 28.7239 21.291 28.7239 19.1591Z" fill="#4285F4" />
    <path fillRule="evenodd" clipRule="evenodd" d="M22.0019 26C23.8925 26 25.4775 25.3732 26.636 24.3041L24.3731 22.5478C23.7461 22.9678 22.944 23.216 22.0019 23.216C20.1782 23.216 18.6346 21.9846 18.084 20.3301H15.7446V22.1437C16.8968 24.4314 19.2648 26 22.0019 26Z" fill="#34A853" />
    <path fillRule="evenodd" clipRule="evenodd" d="M18.084 20.3299C17.944 19.9099 17.8644 19.4613 17.8644 18.9999C17.8644 18.5386 17.944 18.0899 18.084 17.6699V15.8563H15.7448C15.2705 16.8013 15 17.8704 15 18.9999C15 20.1295 15.2705 21.1985 15.7448 22.1435L18.084 20.3299Z" fill="#FBBC05" />
    <path fillRule="evenodd" clipRule="evenodd" d="M22.0019 14.7841C23.03 14.7841 23.953 15.1373 24.6786 15.8309L26.687 13.8232C25.4743 12.6936 23.8893 12 22.0019 12C19.2648 12 16.8968 13.5686 15.7446 15.8563L18.084 17.67C18.6346 16.0154 20.1782 14.7841 22.0019 14.7841Z" fill="#EA4335" />
  </svg>